<?xml version="1.0" encoding="utf-8"?>
<!-- Generator: Adobe Illustrator 19.2.1, SVG Export Plug-In . SVG Version: 6.00 Build 0)  -->
<svg version="1.1" id="Layer_1" xmlns="http://www.w3.org/2000/svg" xmlns:xlink="http://www.w3.org/1999/xlink" x="0px" y="0px"
	 viewBox="0 0 1165.4 364.5" style="enable-background:new 0 0 1165.4 364.5;" xml:space="preserve">
<style type="text/css">
	.st0{opacity:0.19;fill:#161246;}
	.st1{fill:#1DACB7;}
	.st2{fill:#ED1818;}
	.st3{fill:#00C6A0;}
	.st4{opacity:0.9;fill:#161246;}
	.st5{fill:#201B44;}
	.st6{fill:#C9C9D4;}
	.st7{fill:#E01014;}
	.st8{fill:#1C837A;}
	.st9{fill:#2A9CA9;}
	.st10{fill:#27BB8E;}
</style>
<g>
	<path d="M126.2,178.7c-5.6,37.8-7.8,54.1,28.1,54.1l-0.3,2.2H22.4l0.3-2.2c32.2,0,35-17.5,41-54.1L80.2,72.4
		c5.9-37.8,8.8-54.1-23.8-54.1l0.3-2.2h111.6c60.4,0,92.6,15,92.6,51.6c0,60.7-67.9,76-120.1,76h-5.6l0.3-2.5h4.7
		c43.8,0,55.4-46.9,55.4-84.8c0-26.3-10.6-38.2-35.3-38.2h-8.8L126.2,178.7z"/>
	<path d="M378.6,138.7l-1.2-0.3c-21,80.1-41.6,98.8-74.7,98.8c-43.2,0-41.9-32.2-38.5-53.8l15.3-93.5c0.9-6.3-4.1-10.9-12.8-8.1
		l-0.9-0.9c10.9-5.3,32.8-12.2,47.8-12.2c17.8,0,24.1,6.6,20.6,27.8l-16.3,100.1c-2.5,14.7,0.3,23.8,10,23.8c19.1,0,34.4-36,46-82.6
		c5.3-21.6,14.1-61.9,3.4-67.2l0.9-0.9c42.5-3.1,63.2-2.5,55.4,48.2L416.8,225c-8.8,55-81.9,109.1-119.2,109.1
		c-62.5,0-82.3-55.4-127-55.4c-19.1,0-26.3,9.1-26.3,17.8c0,7.8,5.3,14.7,16.6,14.7c7.5,0,16.9-7.5,13.4-16.6
		c42.8-4.4,43.8,60-2.5,60c-24.1,0-36.9-17.2-36.9-37.5c0-30.6,28.1-68.8,69.1-68.8c72.2,0,100.4,74.4,118.2,74.4
		c23.5,0,31.6-58.5,35-75.4L378.6,138.7z"/>
</g>
<circle class="st0" cx="569.2" cy="133.9" r="101.8"/>
<circle class="st1" cx="786" cy="133.9" r="101.8"/>
<polygon class="st2" points="903.5,235.2 1019.6,34.2 1135.6,235.2 "/>
<polygon class="st3" points="779.1,235.4 836.1,136.7 893,235.4 "/>
<path class="st4" d="M592.8,35.2c-16.3-3.8-33.8-3.7-51,1.2c-54.1,15.4-85.5,71.7-70.1,125.8s71.7,85.4,125.8,70.1
	c17.2-4.9,32.2-14,44-25.8L592.8,35.2z"/>
<rect x="1015.9" y="137.9" class="st3" width="102.3" height="20.1"/>
<circle class="st3" cx="1120.7" cy="148.2" r="21.3"/>
</svg>
