<?xml version="1.0" encoding="utf-8"?>
<!-- Generator: Adobe Illustrator 19.2.1, SVG Export Plug-In . SVG Version: 6.00 Build 0)  -->
<svg version="1.1" id="Layer_1" xmlns="http://www.w3.org/2000/svg" xmlns:xlink="http://www.w3.org/1999/xlink" x="0px" y="0px"
	 viewBox="0 0 1115.9 655.5" style="enable-background:new 0 0 1115.9 655.5;" xml:space="preserve">
<style type="text/css">
	.st0{opacity:0.19;fill:#161246;}
	.st1{fill:#1DACB7;}
	.st2{fill:#ED1818;}
	.st3{fill:#00C6A0;}
	.st4{opacity:0.9;fill:#161246;}
	.st5{fill:#201B44;}
	.st6{fill:#C9C9D4;}
	.st7{fill:#E01014;}
	.st8{fill:#1C837A;}
	.st9{fill:#2A9CA9;}
	.st10{fill:#27BB8E;}
</style>
<rect x="33.4" y="25.4" class="st5" width="188" height="188"/>
<rect x="34.4" y="363.5" class="st6" width="188" height="188"/>
<rect x="303.4" y="25.4" class="st7" width="188" height="188"/>
<rect x="304.4" y="363.5" class="st8" width="188" height="188"/>
<rect x="573.4" y="25.4" class="st9" width="188" height="188"/>
<rect x="574.4" y="363.5" width="188" height="188"/>
<rect x="843.4" y="25.4" class="st10" width="188" height="188"/>
<g>
	<path d="M34.3,235.3h2.1l0.8-3h-2.1l0.5-1.7h2.1l1.1-4.1h2l-1.1,4.1h1.7l1.1-4.1h2l-1.1,4.1h2.1l-0.5,1.7h-2.1l-0.8,3h2.1l-0.5,1.7
		h-2.1l-1.1,4.1h-2l1.1-4.1h-1.7l-1.1,4.1h-2l1.1-4.1h-2.1L34.3,235.3z M40.1,235.3l0.8-3h-1.7l-0.8,3H40.1z"/>
	<path d="M46.9,238.2c0.4-1,1.4-2,3-3.1c1.3-1,2.2-1.7,2.6-2.1c0.6-0.6,0.9-1.4,0.9-2.1c0-0.6-0.2-1.2-0.5-1.6
		c-0.3-0.4-0.8-0.6-1.5-0.6c-0.9,0-1.5,0.3-1.8,1c-0.2,0.4-0.3,1-0.3,1.8h-2.8c0-1.3,0.3-2.3,0.7-3.1c0.8-1.5,2.2-2.2,4.2-2.2
		c1.6,0,2.8,0.4,3.8,1.3c0.9,0.9,1.4,2,1.4,3.5c0,1.1-0.3,2.1-1,2.9c-0.4,0.6-1.1,1.2-2.1,1.9l-1.2,0.8c-0.7,0.5-1.2,0.9-1.5,1.1
		c-0.3,0.2-0.5,0.5-0.7,0.8h6.5v2.6H46.2C46.2,240.1,46.4,239.1,46.9,238.2z"/>
	<path d="M67,228.2c0.8,1.3,1.1,3.2,1.1,5.7c0,2.5-0.4,4.3-1.1,5.7c-0.8,1.3-2.1,2-4,2c-1.9,0-3.2-0.7-4-2c-0.8-1.3-1.1-3.2-1.1-5.7
		c0-2.5,0.4-4.3,1.1-5.7c0.8-1.3,2.1-2,4-2C64.9,226.2,66.2,226.9,67,228.2z M61.2,237.8c0.3,0.9,0.9,1.4,1.7,1.4s1.4-0.5,1.7-1.4
		c0.3-0.9,0.4-2.2,0.4-3.9c0-1.8-0.1-3.1-0.4-4c-0.3-0.9-0.8-1.3-1.7-1.3s-1.4,0.4-1.7,1.3s-0.4,2.2-0.4,4
		C60.8,235.6,61,236.9,61.2,237.8z"/>
	<path d="M70.3,230.9v-2c0.9,0,1.6-0.1,1.9-0.2c0.6-0.1,1.1-0.4,1.4-0.8c0.3-0.3,0.4-0.6,0.6-1.1c0.1-0.3,0.1-0.5,0.1-0.6h2.4v14.9
		h-3v-10.3H70.3z"/>
	<path d="M91.5,231.3c0.8,1.1,1.3,2.4,1.3,4.1c0,1.7-0.4,3.2-1.2,4.3c-0.8,1.1-2,1.7-3.5,1.7c-0.9,0-1.7-0.2-2.2-0.6
		c-0.3-0.2-0.7-0.6-1.1-1.1v1.4h-2.9v-15.1h2.9v5.4c0.4-0.5,0.8-0.9,1.2-1.2c0.5-0.3,1.2-0.5,2-0.5
		C89.5,229.7,90.6,230.3,91.5,231.3z M89,238.1c0.4-0.6,0.6-1.4,0.6-2.4c0-0.8-0.1-1.4-0.3-2c-0.4-1-1.1-1.5-2.2-1.5
		c-1.1,0-1.8,0.5-2.2,1.4c-0.2,0.5-0.3,1.2-0.3,2c0,1,0.2,1.8,0.6,2.4c0.4,0.6,1.1,0.9,2,0.9C88,239,88.6,238.7,89,238.1z"/>
	<path d="M104.4,238h-1.7v3.2h-2.9V238h-5.9v-2.6l5.5-9h3.3v9.3h1.7V238z M99.8,235.7v-6.4l-3.7,6.4H99.8z"/>
	<path d="M116,238h-1.7v3.2h-2.9V238h-5.9v-2.6l5.5-9h3.3v9.3h1.7V238z M111.5,235.7v-6.4l-3.7,6.4H111.5z"/>
	<path d="M41.4,254.9c0,0,0.1,0,0.3,0v3c-0.2,0-0.3,0-0.5,0c-0.1,0-0.3,0-0.3,0c-1.2,0-2,0.4-2.4,1.1c-0.2,0.4-0.3,1.1-0.3,2v5.3
		h-2.9v-11.2H38v1.9c0.5-0.7,0.8-1.3,1.2-1.5c0.5-0.5,1.3-0.7,2.1-0.7C41.3,254.9,41.4,254.9,41.4,254.9z"/>
	<path d="M48.9,255.2c0.7,0.3,1.3,0.8,1.7,1.6v-1.6h2.9v10.6c0,1.4-0.2,2.5-0.7,3.3c-0.8,1.3-2.4,1.9-4.8,1.9
		c-1.4,0-2.6-0.3-3.5-0.8s-1.4-1.4-1.5-2.5h3.2c0.1,0.3,0.2,0.6,0.4,0.7c0.3,0.3,0.8,0.4,1.6,0.4c1.1,0,1.8-0.4,2.1-1.1
		c0.2-0.5,0.3-1.2,0.3-2.3v-0.7c-0.3,0.5-0.6,0.8-0.9,1.1c-0.6,0.4-1.3,0.7-2.3,0.7c-1.4,0-2.6-0.5-3.4-1.5c-0.9-1-1.3-2.4-1.3-4.1
		c0-1.7,0.4-3.1,1.2-4.2c0.8-1.1,2-1.7,3.5-1.7C48,254.9,48.5,255,48.9,255.2z M49.9,263.2c0.5-0.5,0.7-1.3,0.7-2.5
		c0-1.1-0.2-1.9-0.7-2.4s-1-0.8-1.8-0.8c-1,0-1.7,0.5-2.1,1.4c-0.2,0.5-0.3,1.1-0.3,1.9c0,0.6,0.1,1.2,0.3,1.7
		c0.4,0.9,1.1,1.4,2.1,1.4C48.8,264,49.4,263.7,49.9,263.2z"/>
	<path d="M65.7,256.5c0.8,1.1,1.3,2.4,1.3,4.1c0,1.7-0.4,3.2-1.2,4.3c-0.8,1.1-2,1.7-3.5,1.7c-0.9,0-1.7-0.2-2.2-0.6
		c-0.3-0.2-0.7-0.6-1.1-1.1v1.4h-2.9v-15.1H59v5.4c0.4-0.5,0.8-0.9,1.2-1.2c0.5-0.3,1.2-0.5,2-0.5C63.7,254.9,64.9,255.5,65.7,256.5
		z M63.3,263.3c0.4-0.6,0.6-1.4,0.6-2.4c0-0.8-0.1-1.4-0.3-2c-0.4-1-1.1-1.5-2.2-1.5c-1.1,0-1.8,0.5-2.2,1.4c-0.2,0.5-0.3,1.2-0.3,2
		c0,1,0.2,1.8,0.6,2.4c0.4,0.6,1.1,0.9,2,0.9C62.3,264.2,62.9,263.9,63.3,263.3z"/>
	<path d="M69.8,255.1c0.5-1.3,1.3-2.6,2.4-4.1h2.2l-0.6,1.1c-0.9,1.6-1.5,3.2-1.8,5c-0.2,1.1-0.3,2.4-0.3,3.7c0,2.1,0.3,4,0.9,5.8
		c0.4,1,1,2.4,1.9,4h-2.2l-0.7-1c-0.5-0.6-1-1.5-1.5-2.7c-1-2.1-1.4-4.2-1.4-6.3C68.6,258.8,69,256.9,69.8,255.1z"/>
	<path d="M78.1,261.8c0,0.6,0.1,1.1,0.3,1.5c0.4,0.7,1,1.1,1.9,1.1c0.6,0,1.1-0.2,1.5-0.6c0.4-0.4,0.6-1,0.6-1.7c0-1-0.4-1.6-1.2-2
		c-0.4-0.2-1.2-0.3-2.1-0.3v-2.1c0.9,0,1.6-0.1,2-0.3c0.6-0.3,1-0.9,1-1.7c0-0.6-0.2-1-0.5-1.4s-0.8-0.5-1.4-0.5
		c-0.7,0-1.2,0.2-1.5,0.7c-0.3,0.4-0.5,1-0.5,1.8h-2.7c0-0.7,0.2-1.4,0.4-2.1c0.2-0.6,0.6-1.1,1.1-1.6c0.4-0.3,0.8-0.6,1.4-0.8
		c0.5-0.2,1.2-0.3,1.9-0.3c1.4,0,2.6,0.4,3.4,1.1c0.9,0.7,1.3,1.7,1.3,3c0,0.9-0.3,1.6-0.8,2.2c-0.3,0.4-0.7,0.6-1,0.8
		c0.3,0,0.6,0.2,1.1,0.7c0.7,0.7,1.1,1.6,1.1,2.8c0,1.3-0.4,2.4-1.3,3.3c-0.9,1-2.2,1.4-3.9,1.4c-2.1,0-3.6-0.7-4.4-2.1
		c-0.4-0.7-0.7-1.7-0.7-2.9H78.1z"/>
	<path d="M87.7,263.4c0.4-1,1.4-2,3-3.1c1.3-1,2.2-1.7,2.6-2.1c0.6-0.6,0.9-1.4,0.9-2.1c0-0.6-0.2-1.2-0.5-1.6
		c-0.3-0.4-0.8-0.6-1.5-0.6c-0.9,0-1.5,0.3-1.8,1c-0.2,0.4-0.3,1-0.3,1.8h-2.8c0-1.3,0.3-2.3,0.7-3.1c0.8-1.5,2.2-2.2,4.2-2.2
		c1.6,0,2.8,0.4,3.8,1.3c0.9,0.9,1.4,2,1.4,3.5c0,1.1-0.3,2.1-1,2.9c-0.4,0.6-1.1,1.2-2.1,1.9l-1.2,0.8c-0.7,0.5-1.2,0.9-1.5,1.1
		c-0.3,0.2-0.5,0.5-0.7,0.8h6.5v2.6H87C87,265.3,87.2,264.3,87.7,263.4z"/>
	<path d="M99.2,268.8c0.6-0.2,1-0.4,1.3-0.8c0.3-0.4,0.4-0.9,0.5-1.6h-1.8v-3.1h3.2v2.7c0,0.5-0.1,1-0.2,1.5s-0.4,0.9-0.7,1.3
		c-0.4,0.4-0.8,0.7-1.3,0.9c-0.5,0.2-0.8,0.3-1,0.3V268.8z"/>
	<path d="M111,263.4c0.4-1,1.4-2,3-3.1c1.3-1,2.2-1.7,2.6-2.1c0.6-0.6,0.9-1.4,0.9-2.1c0-0.6-0.2-1.2-0.5-1.6
		c-0.3-0.4-0.8-0.6-1.5-0.6c-0.9,0-1.5,0.3-1.8,1c-0.2,0.4-0.3,1-0.3,1.8h-2.8c0-1.3,0.3-2.3,0.7-3.1c0.8-1.5,2.2-2.2,4.2-2.2
		c1.6,0,2.8,0.4,3.8,1.3c0.9,0.9,1.4,2,1.4,3.5c0,1.1-0.3,2.1-1,2.9c-0.4,0.6-1.1,1.2-2.1,1.9l-1.2,0.8c-0.7,0.5-1.2,0.9-1.5,1.1
		c-0.3,0.2-0.5,0.5-0.7,0.8h6.5v2.6h-10.2C110.4,265.3,110.6,264.3,111,263.4z"/>
	<path d="M132.4,254c-0.4,0.4-1,1.2-1.8,2.3c-0.8,1.1-1.4,2.2-2,3.4c-0.4,0.9-0.8,2.1-1.1,3.4s-0.5,2.4-0.5,3.3h-3
		c0.1-2.7,1-5.4,2.6-8.3c1.1-1.8,2-3,2.7-3.7h-7.4l0-2.6h10.5V254z"/>
	<path d="M134.2,268.8c0.6-0.2,1-0.4,1.3-0.8c0.3-0.4,0.4-0.9,0.5-1.6h-1.8v-3.1h3.2v2.7c0,0.5-0.1,1-0.2,1.5s-0.4,0.9-0.7,1.3
		c-0.4,0.4-0.8,0.7-1.3,0.9c-0.5,0.2-0.8,0.3-1,0.3V268.8z"/>
	<path d="M152.4,255.2c0-0.2-0.1-0.5-0.3-0.8c-0.3-0.5-0.8-0.7-1.4-0.7c-1,0-1.6,0.5-2,1.6c-0.2,0.6-0.4,1.5-0.5,2.6
		c0.4-0.4,0.8-0.7,1.3-0.9s1-0.3,1.6-0.3c1.3,0,2.4,0.4,3.2,1.3c0.8,0.9,1.3,2,1.3,3.4c0,1.4-0.4,2.6-1.2,3.7s-2.1,1.6-3.9,1.6
		c-1.9,0-3.3-0.8-4.1-2.3c-0.7-1.2-1-2.8-1-4.7c0-1.1,0-2.1,0.1-2.8c0.2-1.3,0.5-2.3,1-3.2c0.4-0.7,1-1.3,1.7-1.7
		c0.7-0.4,1.5-0.7,2.5-0.7c1.4,0,2.5,0.4,3.3,1.1c0.8,0.7,1.3,1.6,1.4,2.8H152.4z M148.9,263.6c0.4,0.5,1,0.8,1.6,0.8
		c0.6,0,1.2-0.2,1.5-0.7c0.4-0.5,0.6-1.1,0.6-1.9c0-0.9-0.2-1.5-0.6-2c-0.4-0.5-0.9-0.7-1.6-0.7c-0.5,0-0.9,0.2-1.3,0.5
		c-0.6,0.4-0.9,1.2-0.9,2.2C148.3,262.4,148.5,263.1,148.9,263.6z"/>
	<path d="M157.5,260c0.4-0.7,0.9-1.2,1.7-1.5c-0.7-0.5-1.2-1-1.4-1.6c-0.2-0.6-0.3-1.1-0.3-1.6c0-1.1,0.4-2,1.2-2.8
		c0.8-0.8,2-1.1,3.5-1.1c1.5,0,2.6,0.4,3.5,1.1c0.8,0.8,1.2,1.7,1.2,2.8c0,0.5-0.1,1-0.3,1.6c-0.2,0.6-0.7,1-1.4,1.5
		c0.7,0.4,1.3,1,1.7,1.6c0.4,0.7,0.6,1.4,0.6,2.3c0,1.3-0.5,2.3-1.4,3.2c-0.9,0.9-2.2,1.3-3.9,1.3c-1.7,0-2.9-0.4-3.8-1.3
		c-0.9-0.9-1.3-1.9-1.3-3.2C156.9,261.4,157.1,260.6,157.5,260z M160.5,263.7c0.4,0.4,0.9,0.6,1.6,0.6c0.7,0,1.2-0.2,1.6-0.6
		c0.4-0.4,0.6-1,0.6-1.7c0-0.8-0.2-1.3-0.6-1.7c-0.4-0.4-0.9-0.6-1.6-0.6s-1.2,0.2-1.6,0.6c-0.4,0.4-0.6,1-0.6,1.7
		C160,262.8,160.2,263.3,160.5,263.7z M160.7,257c0.3,0.3,0.8,0.5,1.4,0.5c0.6,0,1.1-0.2,1.4-0.5c0.3-0.3,0.5-0.8,0.5-1.3
		c0-0.6-0.2-1-0.5-1.4c-0.3-0.3-0.8-0.5-1.4-0.5c-0.6,0-1.1,0.2-1.4,0.5c-0.3,0.3-0.5,0.8-0.5,1.4
		C160.2,256.2,160.4,256.6,160.7,257z"/>
	<path d="M172.9,255.1c0.8,1.8,1.2,3.7,1.2,5.6c0,2.1-0.5,4.1-1.4,6.3c-0.5,1.2-1,2.1-1.5,2.7l-0.7,1h-2.2c0.9-1.6,1.5-3,1.9-4
		c0.6-1.8,0.9-3.7,0.9-5.8c0-1.3-0.1-2.6-0.3-3.7c-0.3-1.7-0.9-3.4-1.8-5l-0.6-1.1h2.2C171.6,252.4,172.4,253.8,172.9,255.1z"/>
</g>
<g>
	<path d="M35.8,578.8h2.1l0.8-3h-2.1l0.5-1.7h2.1l1.1-4.1h2l-1.1,4.1h1.7L44,570h2l-1.1,4.1H47l-0.5,1.7h-2.1l-0.8,3h2.1l-0.5,1.7
		h-2.1l-1.1,4.1h-2l1.1-4.1h-1.7l-1.1,4.1h-2l1.1-4.1h-2.1L35.8,578.8z M41.6,578.8l0.8-3h-1.7l-0.8,3H41.6z"/>
	<path d="M55.1,577.5c-0.1-0.4-0.2-0.8-0.4-1.1c-0.3-0.5-0.8-0.7-1.5-0.7c-1,0-1.7,0.5-2,1.5c-0.2,0.5-0.3,1.2-0.3,2.1
		c0,0.8,0.1,1.5,0.3,2c0.3,0.9,1,1.4,2,1.4c0.7,0,1.2-0.2,1.5-0.6c0.3-0.4,0.5-0.8,0.5-1.4h3c-0.1,0.9-0.4,1.7-1,2.5
		c-0.9,1.3-2.3,1.9-4.1,1.9c-1.8,0-3.1-0.5-4-1.6s-1.3-2.4-1.3-4.1c0-1.9,0.5-3.4,1.4-4.5s2.2-1.6,3.9-1.6c1.4,0,2.6,0.3,3.4,0.9
		c0.9,0.6,1.4,1.7,1.6,3.3H55.1z"/>
	<path d="M60.7,571.1c0.9-1,2.1-1.5,3.6-1.5c2.3,0,3.8,1,4.7,3c0.5,1.1,0.7,2.6,0.7,4.5c0,1.8-0.2,3.3-0.7,4.5
		c-0.9,2.3-2.5,3.4-4.8,3.4c-1.1,0-2.1-0.3-3-1c-0.9-0.7-1.4-1.6-1.5-2.9h2.9c0.1,0.4,0.3,0.8,0.6,1.1s0.7,0.4,1.2,0.4
		c1,0,1.6-0.5,2-1.6c0.2-0.6,0.3-1.4,0.4-2.6c-0.3,0.3-0.6,0.6-0.9,0.8c-0.5,0.3-1.2,0.5-2,0.5c-1.2,0-2.2-0.4-3.1-1.2
		c-0.9-0.8-1.4-2-1.4-3.5C59.3,573.4,59.8,572.1,60.7,571.1z M65.6,577c0.7-0.4,1-1.2,1-2.2c0-0.8-0.2-1.5-0.6-2
		c-0.4-0.5-0.9-0.7-1.6-0.7c-0.5,0-0.9,0.1-1.3,0.4c-0.6,0.4-0.8,1.2-0.8,2.2c0,0.9,0.2,1.5,0.5,2c0.4,0.4,0.9,0.7,1.7,0.7
		C64.9,577.4,65.3,577.3,65.6,577z"/>
	<path d="M78.4,577.5c-0.1-0.4-0.2-0.8-0.4-1.1c-0.3-0.5-0.8-0.7-1.5-0.7c-1,0-1.7,0.5-2,1.5c-0.2,0.5-0.3,1.2-0.3,2.1
		c0,0.8,0.1,1.5,0.3,2c0.3,0.9,1,1.4,2,1.4c0.7,0,1.2-0.2,1.5-0.6c0.3-0.4,0.5-0.8,0.5-1.4h3c-0.1,0.9-0.4,1.7-1,2.5
		c-0.9,1.3-2.3,1.9-4.1,1.9c-1.8,0-3.1-0.5-4-1.6s-1.3-2.4-1.3-4.1c0-1.9,0.5-3.4,1.4-4.5s2.2-1.6,3.9-1.6c1.4,0,2.6,0.3,3.4,0.9
		c0.9,0.6,1.4,1.7,1.6,3.3H78.4z"/>
	<path d="M84.1,571.1c0.9-1,2.1-1.5,3.6-1.5c2.3,0,3.8,1,4.7,3c0.5,1.1,0.7,2.6,0.7,4.5c0,1.8-0.2,3.3-0.7,4.5
		c-0.9,2.3-2.5,3.4-4.8,3.4c-1.1,0-2.1-0.3-3-1c-0.9-0.7-1.4-1.6-1.5-2.9h2.9c0.1,0.4,0.3,0.8,0.6,1.1s0.7,0.4,1.2,0.4
		c1,0,1.6-0.5,2-1.6c0.2-0.6,0.3-1.4,0.4-2.6c-0.3,0.3-0.6,0.6-0.9,0.8c-0.5,0.3-1.2,0.5-2,0.5c-1.2,0-2.2-0.4-3.1-1.2
		c-0.9-0.8-1.4-2-1.4-3.5C82.7,573.4,83.1,572.1,84.1,571.1z M89,577c0.7-0.4,1-1.2,1-2.2c0-0.8-0.2-1.5-0.6-2
		c-0.4-0.5-0.9-0.7-1.6-0.7c-0.5,0-0.9,0.1-1.3,0.4c-0.6,0.4-0.8,1.2-0.8,2.2c0,0.9,0.2,1.5,0.5,2c0.4,0.4,0.9,0.7,1.7,0.7
		C88.2,577.4,88.6,577.3,89,577z"/>
	<path d="M101,573.6c0.5,0.3,1,0.7,1.3,1.2v-5.3h3v15.1h-2.8v-1.5c-0.4,0.7-0.9,1.1-1.4,1.4s-1.2,0.5-2,0.5c-1.3,0-2.4-0.5-3.3-1.6
		c-0.9-1.1-1.3-2.4-1.3-4.1c0-1.9,0.4-3.4,1.3-4.5c0.9-1.1,2.1-1.6,3.5-1.6C99.9,573.2,100.5,573.3,101,573.6z M101.7,581.6
		c0.4-0.6,0.6-1.4,0.6-2.4c0-1.4-0.3-2.3-1-2.9c-0.4-0.4-0.9-0.5-1.5-0.5c-0.9,0-1.5,0.3-1.9,1c-0.4,0.6-0.6,1.4-0.6,2.4
		c0,1,0.2,1.9,0.6,2.5c0.4,0.6,1,0.9,1.9,0.9S101.3,582.2,101.7,581.6z"/>
	<path d="M117.5,581.4h-1.7v3.2H113v-3.2h-5.9v-2.6l5.5-9h3.3v9.3h1.7V581.4z M113,579.2v-6.4l-3.7,6.4H113z"/>
	<path d="M42.9,598.4c0,0,0.1,0,0.3,0v3c-0.2,0-0.3,0-0.5,0c-0.1,0-0.3,0-0.3,0c-1.2,0-2,0.4-2.4,1.1c-0.2,0.4-0.3,1.1-0.3,2v5.3
		h-2.9v-11.2h2.8v1.9c0.5-0.7,0.8-1.3,1.2-1.5c0.5-0.5,1.3-0.7,2.1-0.7C42.8,598.4,42.9,598.4,42.9,598.4z"/>
	<path d="M50.4,598.7c0.7,0.3,1.3,0.8,1.7,1.6v-1.6H55v10.6c0,1.4-0.2,2.5-0.7,3.3c-0.8,1.3-2.4,1.9-4.8,1.9c-1.4,0-2.6-0.3-3.5-0.8
		s-1.4-1.4-1.5-2.5h3.2c0.1,0.3,0.2,0.6,0.4,0.7c0.3,0.3,0.8,0.4,1.6,0.4c1.1,0,1.8-0.4,2.1-1.1c0.2-0.5,0.3-1.2,0.3-2.3v-0.7
		c-0.3,0.5-0.6,0.8-0.9,1.1c-0.6,0.4-1.3,0.7-2.3,0.7c-1.4,0-2.6-0.5-3.4-1.5c-0.9-1-1.3-2.4-1.3-4.1c0-1.7,0.4-3.1,1.2-4.2
		c0.8-1.1,2-1.7,3.5-1.7C49.5,598.4,50,598.5,50.4,598.7z M51.4,606.7c0.5-0.5,0.7-1.3,0.7-2.5c0-1.1-0.2-1.9-0.7-2.4
		s-1-0.8-1.8-0.8c-1,0-1.7,0.5-2.1,1.4c-0.2,0.5-0.3,1.1-0.3,1.9c0,0.6,0.1,1.2,0.3,1.7c0.4,0.9,1.1,1.4,2.1,1.4
		C50.3,607.4,50.9,607.2,51.4,606.7z"/>
	<path d="M67.2,600c0.8,1.1,1.3,2.4,1.3,4.1c0,1.7-0.4,3.2-1.2,4.3c-0.8,1.1-2,1.7-3.5,1.7c-0.9,0-1.7-0.2-2.2-0.6
		c-0.3-0.2-0.7-0.6-1.1-1.1v1.4h-2.9v-15.1h2.9v5.4c0.4-0.5,0.8-0.9,1.2-1.2c0.5-0.3,1.2-0.5,2-0.5C65.2,598.4,66.4,598.9,67.2,600z
		 M64.8,606.8c0.4-0.6,0.6-1.4,0.6-2.4c0-0.8-0.1-1.4-0.3-2c-0.4-1-1.1-1.5-2.2-1.5c-1.1,0-1.8,0.5-2.2,1.4c-0.2,0.5-0.3,1.2-0.3,2
		c0,1,0.2,1.8,0.6,2.4c0.4,0.6,1.1,0.9,2,0.9C63.8,607.7,64.4,607.4,64.8,606.8z"/>
	<path d="M71.3,598.5c0.5-1.3,1.3-2.6,2.4-4.1h2.2l-0.6,1.1c-0.9,1.6-1.5,3.2-1.8,5c-0.2,1.1-0.3,2.4-0.3,3.7c0,2.1,0.3,4,0.9,5.8
		c0.4,1,1,2.4,1.9,4h-2.2l-0.7-1c-0.5-0.6-1-1.5-1.5-2.7c-1-2.1-1.4-4.2-1.4-6.3C70.1,602.2,70.5,600.4,71.3,598.5z"/>
	<path d="M77.5,606.9c0.4-1,1.4-2,3-3.1c1.3-1,2.2-1.7,2.6-2.1c0.6-0.6,0.9-1.4,0.9-2.1c0-0.6-0.2-1.2-0.5-1.6
		c-0.3-0.4-0.8-0.6-1.5-0.6c-0.9,0-1.5,0.3-1.8,1c-0.2,0.4-0.3,1-0.3,1.8H77c0-1.3,0.3-2.3,0.7-3.1c0.8-1.5,2.2-2.2,4.2-2.2
		c1.6,0,2.8,0.4,3.8,1.3c0.9,0.9,1.4,2,1.4,3.5c0,1.1-0.3,2.1-1,2.9c-0.4,0.6-1.1,1.2-2.1,1.9l-1.2,0.8c-0.7,0.5-1.2,0.9-1.5,1.1
		c-0.3,0.2-0.5,0.5-0.7,0.8H87v2.6H76.8C76.8,608.8,77.1,607.8,77.5,606.9z"/>
	<path d="M97.6,596.9c0.8,1.3,1.1,3.2,1.1,5.7c0,2.5-0.4,4.3-1.1,5.7c-0.8,1.3-2.1,2-4,2s-3.2-0.7-4-2c-0.8-1.3-1.1-3.2-1.1-5.7
		c0-2.5,0.4-4.3,1.1-5.7c0.8-1.3,2.1-2,4-2S96.8,595.5,97.6,596.9z M91.9,606.5c0.3,0.9,0.9,1.4,1.7,1.4s1.4-0.5,1.7-1.4
		c0.3-0.9,0.4-2.2,0.4-3.9c0-1.8-0.1-3.1-0.4-4c-0.3-0.9-0.8-1.3-1.7-1.3s-1.4,0.4-1.7,1.3s-0.4,2.2-0.4,4
		C91.5,604.3,91.6,605.6,91.9,606.5z"/>
	<path d="M101,599.6v-2c0.9,0,1.6-0.1,1.9-0.2c0.6-0.1,1.1-0.4,1.4-0.8c0.3-0.3,0.4-0.6,0.6-1.1c0.1-0.3,0.1-0.5,0.1-0.6h2.4v14.9
		h-3v-10.3H101z"/>
	<path d="M112.4,612.3c0.6-0.2,1-0.4,1.3-0.8c0.3-0.4,0.4-0.9,0.5-1.6h-1.8v-3.1h3.2v2.7c0,0.5-0.1,1-0.2,1.5s-0.4,0.9-0.7,1.3
		c-0.4,0.4-0.8,0.7-1.3,0.9c-0.5,0.2-0.8,0.3-1,0.3V612.3z"/>
	<path d="M124.2,606.9c0.4-1,1.4-2,3-3.1c1.3-1,2.2-1.7,2.6-2.1c0.6-0.6,0.9-1.4,0.9-2.1c0-0.6-0.2-1.2-0.5-1.6
		c-0.3-0.4-0.8-0.6-1.5-0.6c-0.9,0-1.5,0.3-1.8,1c-0.2,0.4-0.3,1-0.3,1.8h-2.8c0-1.3,0.3-2.3,0.7-3.1c0.8-1.5,2.2-2.2,4.2-2.2
		c1.6,0,2.8,0.4,3.8,1.3c0.9,0.9,1.4,2,1.4,3.5c0,1.1-0.3,2.1-1,2.9c-0.4,0.6-1.1,1.2-2.1,1.9l-1.2,0.8c-0.7,0.5-1.2,0.9-1.5,1.1
		c-0.3,0.2-0.5,0.5-0.7,0.8h6.5v2.6h-10.2C123.5,608.8,123.8,607.8,124.2,606.9z"/>
	<path d="M144.3,596.9c0.8,1.3,1.1,3.2,1.1,5.7c0,2.5-0.4,4.3-1.1,5.7c-0.8,1.3-2.1,2-4,2s-3.2-0.7-4-2c-0.8-1.3-1.1-3.2-1.1-5.7
		c0-2.5,0.4-4.3,1.1-5.7c0.8-1.3,2.1-2,4-2S143.5,595.5,144.3,596.9z M138.6,606.5c0.3,0.9,0.9,1.4,1.7,1.4s1.4-0.5,1.7-1.4
		c0.3-0.9,0.4-2.2,0.4-3.9c0-1.8-0.1-3.1-0.4-4c-0.3-0.9-0.8-1.3-1.7-1.3s-1.4,0.4-1.7,1.3s-0.4,2.2-0.4,4
		C138.2,604.3,138.3,605.6,138.6,606.5z"/>
	<path d="M147.7,599.6v-2c0.9,0,1.6-0.1,1.9-0.2c0.6-0.1,1.1-0.4,1.4-0.8c0.3-0.3,0.4-0.6,0.6-1.1c0.1-0.3,0.1-0.5,0.1-0.6h2.4v14.9
		h-3v-10.3H147.7z"/>
	<path d="M159.1,612.3c0.6-0.2,1-0.4,1.3-0.8c0.3-0.4,0.4-0.9,0.5-1.6h-1.8v-3.1h3.2v2.7c0,0.5-0.1,1-0.2,1.5s-0.4,0.9-0.7,1.3
		c-0.4,0.4-0.8,0.7-1.3,0.9c-0.5,0.2-0.8,0.3-1,0.3V612.3z"/>
	<path d="M170.9,606.9c0.4-1,1.4-2,3-3.1c1.3-1,2.2-1.7,2.6-2.1c0.6-0.6,0.9-1.4,0.9-2.1c0-0.6-0.2-1.2-0.5-1.6
		c-0.3-0.4-0.8-0.6-1.5-0.6c-0.9,0-1.5,0.3-1.8,1c-0.2,0.4-0.3,1-0.3,1.8h-2.8c0-1.3,0.3-2.3,0.7-3.1c0.8-1.5,2.2-2.2,4.2-2.2
		c1.6,0,2.8,0.4,3.8,1.3c0.9,0.9,1.4,2,1.4,3.5c0,1.1-0.3,2.1-1,2.9c-0.4,0.6-1.1,1.2-2.1,1.9l-1.2,0.8c-0.7,0.5-1.2,0.9-1.5,1.1
		c-0.3,0.2-0.5,0.5-0.7,0.8h6.5v2.6h-10.2C170.2,608.8,170.5,607.8,170.9,606.9z"/>
	<path d="M182.7,599.6v-2c0.9,0,1.6-0.1,1.9-0.2c0.6-0.1,1.1-0.4,1.4-0.8c0.3-0.3,0.4-0.6,0.6-1.1c0.1-0.3,0.1-0.5,0.1-0.6h2.4v14.9
		h-3v-10.3H182.7z"/>
	<path d="M194.3,606.9c0.4-1,1.4-2,3-3.1c1.3-1,2.2-1.7,2.6-2.1c0.6-0.6,0.9-1.4,0.9-2.1c0-0.6-0.2-1.2-0.5-1.6
		c-0.3-0.4-0.8-0.6-1.5-0.6c-0.9,0-1.5,0.3-1.8,1c-0.2,0.4-0.3,1-0.3,1.8h-2.8c0-1.3,0.3-2.3,0.7-3.1c0.8-1.5,2.2-2.2,4.2-2.2
		c1.6,0,2.8,0.4,3.8,1.3c0.9,0.9,1.4,2,1.4,3.5c0,1.1-0.3,2.1-1,2.9c-0.4,0.6-1.1,1.2-2.1,1.9l-1.2,0.8c-0.7,0.5-1.2,0.9-1.5,1.1
		c-0.3,0.2-0.5,0.5-0.7,0.8h6.5v2.6h-10.2C193.6,608.8,193.8,607.8,194.3,606.9z"/>
	<path d="M209.4,598.5c0.8,1.8,1.2,3.7,1.2,5.6c0,2.1-0.5,4.1-1.4,6.3c-0.5,1.2-1,2.1-1.5,2.7l-0.7,1h-2.2c0.9-1.6,1.5-3,1.9-4
		c0.6-1.8,0.9-3.7,0.9-5.8c0-1.3-0.1-2.6-0.3-3.7c-0.3-1.7-0.9-3.4-1.8-5l-0.6-1.1h2.2C208.1,595.9,208.9,597.3,209.4,598.5z"/>
</g>
<g>
	<path d="M308.8,578.8h2.1l0.8-3h-2.1l0.5-1.7h2.1l1.1-4.1h2l-1.1,4.1h1.7l1.1-4.1h2l-1.1,4.1h2.1l-0.5,1.7h-2.1l-0.8,3h2.1
		l-0.5,1.7h-2.1l-1.1,4.1h-2l1.1-4.1h-1.7l-1.1,4.1h-2l1.1-4.1h-2.1L308.8,578.8z M314.6,578.8l0.8-3h-1.7l-0.8,3H314.6z"/>
	<path d="M321.5,574.4v-2c0.9,0,1.6-0.1,1.9-0.2c0.6-0.1,1.1-0.4,1.4-0.8c0.3-0.3,0.4-0.6,0.6-1.1c0.1-0.3,0.1-0.5,0.1-0.6h2.4v14.9
		h-3v-10.3H321.5z"/>
	<path d="M339.7,577.5c-0.1-0.4-0.2-0.8-0.4-1.1c-0.3-0.5-0.8-0.7-1.5-0.7c-1,0-1.7,0.5-2,1.5c-0.2,0.5-0.3,1.2-0.3,2.1
		c0,0.8,0.1,1.5,0.3,2c0.3,0.9,1,1.4,2,1.4c0.7,0,1.2-0.2,1.5-0.6c0.3-0.4,0.5-0.8,0.5-1.4h3c-0.1,0.9-0.4,1.7-1,2.5
		c-0.9,1.3-2.3,1.9-4.1,1.9c-1.8,0-3.1-0.5-4-1.6s-1.3-2.4-1.3-4.1c0-1.9,0.5-3.4,1.4-4.5s2.2-1.6,3.9-1.6c1.4,0,2.6,0.3,3.4,0.9
		c0.9,0.6,1.4,1.7,1.6,3.3H339.7z"/>
	<path d="M344.5,578.2c0.4-0.7,0.9-1.2,1.7-1.5c-0.7-0.5-1.2-1-1.4-1.6c-0.2-0.6-0.3-1.1-0.3-1.6c0-1.1,0.4-2,1.2-2.8
		c0.8-0.8,2-1.1,3.5-1.1c1.5,0,2.6,0.4,3.5,1.1c0.8,0.8,1.2,1.7,1.2,2.8c0,0.5-0.1,1-0.3,1.6c-0.2,0.6-0.7,1-1.4,1.5
		c0.7,0.4,1.3,1,1.7,1.6c0.4,0.7,0.6,1.4,0.6,2.3c0,1.3-0.5,2.3-1.4,3.2c-0.9,0.9-2.2,1.3-3.9,1.3c-1.7,0-2.9-0.4-3.8-1.3
		c-0.9-0.9-1.3-1.9-1.3-3.2C343.9,579.7,344.1,578.9,344.5,578.2z M347.5,582c0.4,0.4,0.9,0.6,1.6,0.6c0.7,0,1.2-0.2,1.6-0.6
		c0.4-0.4,0.6-1,0.6-1.7c0-0.8-0.2-1.3-0.6-1.7c-0.4-0.4-0.9-0.6-1.6-0.6s-1.2,0.2-1.6,0.6c-0.4,0.4-0.6,1-0.6,1.7
		C346.9,581.1,347.1,581.6,347.5,582z M347.7,575.3c0.3,0.3,0.8,0.5,1.4,0.5c0.6,0,1.1-0.2,1.4-0.5c0.3-0.3,0.5-0.8,0.5-1.3
		c0-0.6-0.2-1-0.5-1.4c-0.3-0.3-0.8-0.5-1.4-0.5c-0.6,0-1.1,0.2-1.4,0.5c-0.3,0.3-0.5,0.8-0.5,1.4
		C347.2,574.5,347.4,574.9,347.7,575.3z"/>
	<path d="M358.5,580.1c0,0.6,0.1,1.1,0.3,1.5c0.4,0.7,1,1.1,1.9,1.1c0.6,0,1.1-0.2,1.5-0.6c0.4-0.4,0.6-1,0.6-1.7c0-1-0.4-1.6-1.2-2
		c-0.4-0.2-1.2-0.3-2.1-0.3V576c0.9,0,1.6-0.1,2-0.3c0.6-0.3,1-0.9,1-1.7c0-0.6-0.2-1-0.5-1.4s-0.8-0.5-1.4-0.5
		c-0.7,0-1.2,0.2-1.5,0.7c-0.3,0.4-0.5,1-0.5,1.8h-2.7c0-0.7,0.2-1.4,0.4-2.1c0.2-0.6,0.6-1.1,1.1-1.6c0.4-0.3,0.8-0.6,1.4-0.8
		c0.5-0.2,1.2-0.3,1.9-0.3c1.4,0,2.6,0.4,3.4,1.1c0.9,0.7,1.3,1.7,1.3,3c0,0.9-0.3,1.6-0.8,2.2c-0.3,0.4-0.7,0.6-1,0.8
		c0.3,0,0.6,0.2,1.1,0.7c0.7,0.7,1.1,1.6,1.1,2.8c0,1.3-0.4,2.4-1.3,3.3c-0.9,1-2.2,1.4-3.9,1.4c-2.1,0-3.6-0.7-4.4-2.1
		c-0.4-0.7-0.7-1.7-0.7-2.9H358.5z"/>
	<path d="M377.8,572.3c-0.4,0.4-1,1.2-1.8,2.3c-0.8,1.1-1.4,2.2-2,3.4c-0.4,0.9-0.8,2.1-1.1,3.4s-0.5,2.4-0.5,3.3h-3
		c0.1-2.7,1-5.4,2.6-8.3c1.1-1.8,2-3,2.7-3.7h-7.4l0-2.6h10.5V572.3z"/>
	<path d="M384.2,577.8c0.5-0.1,0.9-0.2,1.2-0.3c0.4-0.2,0.6-0.5,0.6-0.8c0-0.5-0.2-0.8-0.5-0.9c-0.3-0.2-0.8-0.3-1.4-0.3
		c-0.7,0-1.2,0.2-1.5,0.5c-0.2,0.3-0.3,0.6-0.4,1h-2.8c0.1-1,0.3-1.8,0.8-2.4c0.8-1,2.1-1.5,4-1.5c1.2,0,2.3,0.2,3.3,0.7
		c1,0.5,1.4,1.4,1.4,2.7v5.1c0,0.4,0,0.8,0,1.3c0,0.4,0.1,0.6,0.2,0.8c0.1,0.1,0.2,0.2,0.4,0.3v0.4h-3.2c-0.1-0.2-0.2-0.4-0.2-0.6
		s-0.1-0.4-0.1-0.7c-0.4,0.4-0.9,0.8-1.4,1.1c-0.6,0.4-1.3,0.5-2.1,0.5c-1,0-1.9-0.3-2.5-0.9c-0.7-0.6-1-1.4-1-2.5
		c0-1.4,0.5-2.4,1.6-3c0.6-0.3,1.4-0.6,2.6-0.7L384.2,577.8z M386,579.2c-0.2,0.1-0.4,0.2-0.6,0.3c-0.2,0.1-0.5,0.1-0.8,0.2
		l-0.7,0.1c-0.6,0.1-1.1,0.2-1.3,0.4c-0.5,0.3-0.7,0.7-0.7,1.2c0,0.5,0.1,0.9,0.4,1.1c0.3,0.2,0.6,0.3,1,0.3c0.6,0,1.2-0.2,1.8-0.6
		s0.8-1,0.8-2V579.2z"/>
	<path d="M315.9,598.4c0,0,0.1,0,0.3,0v3c-0.2,0-0.3,0-0.5,0c-0.1,0-0.3,0-0.3,0c-1.2,0-2,0.4-2.4,1.1c-0.2,0.4-0.3,1.1-0.3,2v5.3
		h-2.9v-11.2h2.8v1.9c0.5-0.7,0.8-1.3,1.2-1.5c0.5-0.5,1.3-0.7,2.1-0.7C315.8,598.4,315.9,598.4,315.9,598.4z"/>
	<path d="M323.4,598.7c0.7,0.3,1.3,0.8,1.7,1.6v-1.6h2.9v10.6c0,1.4-0.2,2.5-0.7,3.3c-0.8,1.3-2.4,1.9-4.8,1.9
		c-1.4,0-2.6-0.3-3.5-0.8s-1.4-1.4-1.5-2.5h3.2c0.1,0.3,0.2,0.6,0.4,0.7c0.3,0.3,0.8,0.4,1.6,0.4c1.1,0,1.8-0.4,2.1-1.1
		c0.2-0.5,0.3-1.2,0.3-2.3v-0.7c-0.3,0.5-0.6,0.8-0.9,1.1c-0.6,0.4-1.3,0.7-2.3,0.7c-1.4,0-2.6-0.5-3.4-1.5c-0.9-1-1.3-2.4-1.3-4.1
		c0-1.7,0.4-3.1,1.2-4.2c0.8-1.1,2-1.7,3.5-1.7C322.5,598.4,323,598.5,323.4,598.7z M324.4,606.7c0.5-0.5,0.7-1.3,0.7-2.5
		c0-1.1-0.2-1.9-0.7-2.4s-1-0.8-1.8-0.8c-1,0-1.7,0.5-2.1,1.4c-0.2,0.5-0.3,1.1-0.3,1.9c0,0.6,0.1,1.2,0.3,1.7
		c0.4,0.9,1.1,1.4,2.1,1.4C323.3,607.4,323.9,607.2,324.4,606.7z"/>
	<path d="M340.2,600c0.8,1.1,1.3,2.4,1.3,4.1c0,1.7-0.4,3.2-1.2,4.3c-0.8,1.1-2,1.7-3.5,1.7c-0.9,0-1.7-0.2-2.2-0.6
		c-0.3-0.2-0.7-0.6-1.1-1.1v1.4h-2.9v-15.1h2.9v5.4c0.4-0.5,0.8-0.9,1.2-1.2c0.5-0.3,1.2-0.5,2-0.5
		C338.2,598.4,339.4,598.9,340.2,600z M337.8,606.8c0.4-0.6,0.6-1.4,0.6-2.4c0-0.8-0.1-1.4-0.3-2c-0.4-1-1.1-1.5-2.2-1.5
		c-1.1,0-1.8,0.5-2.2,1.4c-0.2,0.5-0.3,1.2-0.3,2c0,1,0.2,1.8,0.6,2.4c0.4,0.6,1.1,0.9,2,0.9C336.8,607.7,337.4,607.4,337.8,606.8z"
		/>
	<path d="M344.3,598.5c0.5-1.3,1.3-2.6,2.4-4.1h2.2l-0.6,1.1c-0.9,1.6-1.5,3.2-1.8,5c-0.2,1.1-0.3,2.4-0.3,3.7c0,2.1,0.3,4,0.9,5.8
		c0.4,1,1,2.4,1.9,4h-2.2l-0.7-1c-0.5-0.6-1-1.5-1.5-2.7c-1-2.1-1.4-4.2-1.4-6.3C343.1,602.2,343.5,600.4,344.3,598.5z"/>
	<path d="M350.5,606.9c0.4-1,1.4-2,3-3.1c1.3-1,2.2-1.7,2.6-2.1c0.6-0.6,0.9-1.4,0.9-2.1c0-0.6-0.2-1.2-0.5-1.6
		c-0.3-0.4-0.8-0.6-1.5-0.6c-0.9,0-1.5,0.3-1.8,1c-0.2,0.4-0.3,1-0.3,1.8H350c0-1.3,0.3-2.3,0.7-3.1c0.8-1.5,2.2-2.2,4.2-2.2
		c1.6,0,2.8,0.4,3.8,1.3c0.9,0.9,1.4,2,1.4,3.5c0,1.1-0.3,2.1-1,2.9c-0.4,0.6-1.1,1.2-2.1,1.9l-1.2,0.8c-0.7,0.5-1.2,0.9-1.5,1.1
		c-0.3,0.2-0.5,0.5-0.7,0.8h6.5v2.6h-10.2C349.8,608.8,350,607.8,350.5,606.9z"/>
	<path d="M361.9,603.4c0.4-0.7,0.9-1.2,1.7-1.5c-0.7-0.5-1.2-1-1.4-1.6c-0.2-0.6-0.3-1.1-0.3-1.6c0-1.1,0.4-2,1.2-2.8
		c0.8-0.8,2-1.1,3.5-1.1c1.5,0,2.6,0.4,3.5,1.1c0.8,0.8,1.2,1.7,1.2,2.8c0,0.5-0.1,1-0.3,1.6c-0.2,0.6-0.7,1-1.4,1.5
		c0.7,0.4,1.3,1,1.7,1.6c0.4,0.7,0.6,1.4,0.6,2.3c0,1.3-0.5,2.3-1.4,3.2c-0.9,0.9-2.2,1.3-3.9,1.3c-1.7,0-2.9-0.4-3.8-1.3
		c-0.9-0.9-1.3-1.9-1.3-3.2C361.4,604.9,361.6,604.1,361.9,603.4z M365,607.2c0.4,0.4,0.9,0.6,1.6,0.6c0.7,0,1.2-0.2,1.6-0.6
		c0.4-0.4,0.6-1,0.6-1.7c0-0.8-0.2-1.3-0.6-1.7c-0.4-0.4-0.9-0.6-1.6-0.6s-1.2,0.2-1.6,0.6c-0.4,0.4-0.6,1-0.6,1.7
		C364.4,606.3,364.6,606.8,365,607.2z M365.2,600.5c0.3,0.3,0.8,0.5,1.4,0.5c0.6,0,1.1-0.2,1.4-0.5c0.3-0.3,0.5-0.8,0.5-1.3
		c0-0.6-0.2-1-0.5-1.4c-0.3-0.3-0.8-0.5-1.4-0.5c-0.6,0-1.1,0.2-1.4,0.5c-0.3,0.3-0.5,0.8-0.5,1.4
		C364.7,599.7,364.8,600.1,365.2,600.5z"/>
	<path d="M373.7,612.3c0.6-0.2,1-0.4,1.3-0.8c0.3-0.4,0.4-0.9,0.5-1.6h-1.8v-3.1h3.2v2.7c0,0.5-0.1,1-0.2,1.5s-0.4,0.9-0.7,1.3
		c-0.4,0.4-0.8,0.7-1.3,0.9c-0.5,0.2-0.8,0.3-1,0.3V612.3z"/>
	<path d="M385.6,599.6v-2c0.9,0,1.6-0.1,1.9-0.2c0.6-0.1,1.1-0.4,1.4-0.8c0.3-0.3,0.4-0.6,0.6-1.1c0.1-0.3,0.1-0.5,0.1-0.6h2.4v14.9
		h-3v-10.3H385.6z"/>
	<path d="M399.3,605.3c0,0.6,0.1,1.1,0.3,1.5c0.4,0.7,1,1.1,1.9,1.1c0.6,0,1.1-0.2,1.5-0.6c0.4-0.4,0.6-1,0.6-1.7c0-1-0.4-1.6-1.2-2
		c-0.4-0.2-1.2-0.3-2.1-0.3v-2.1c0.9,0,1.6-0.1,2-0.3c0.6-0.3,1-0.9,1-1.7c0-0.6-0.2-1-0.5-1.4s-0.8-0.5-1.4-0.5
		c-0.7,0-1.2,0.2-1.5,0.7c-0.3,0.4-0.5,1-0.5,1.8h-2.7c0-0.7,0.2-1.4,0.4-2.1c0.2-0.6,0.6-1.1,1.1-1.6c0.4-0.3,0.8-0.6,1.4-0.8
		c0.5-0.2,1.2-0.3,1.9-0.3c1.4,0,2.6,0.4,3.4,1.1c0.9,0.7,1.3,1.7,1.3,3c0,0.9-0.3,1.6-0.8,2.2c-0.3,0.4-0.7,0.6-1,0.8
		c0.3,0,0.6,0.2,1.1,0.7c0.7,0.7,1.1,1.6,1.1,2.8c0,1.3-0.4,2.4-1.3,3.3c-0.9,1-2.2,1.4-3.9,1.4c-2.1,0-3.6-0.7-4.4-2.1
		c-0.4-0.7-0.7-1.7-0.7-2.9H399.3z"/>
	<path d="M409,599.6v-2c0.9,0,1.6-0.1,1.9-0.2c0.6-0.1,1.1-0.4,1.4-0.8c0.3-0.3,0.4-0.6,0.6-1.1c0.1-0.3,0.1-0.5,0.1-0.6h2.4v14.9
		h-3v-10.3H409z"/>
	<path d="M420.4,612.3c0.6-0.2,1-0.4,1.3-0.8c0.3-0.4,0.4-0.9,0.5-1.6h-1.8v-3.1h3.2v2.7c0,0.5-0.1,1-0.2,1.5s-0.4,0.9-0.7,1.3
		c-0.4,0.4-0.8,0.7-1.3,0.9c-0.5,0.2-0.8,0.3-1,0.3V612.3z"/>
	<path d="M432.3,599.6v-2c0.9,0,1.6-0.1,1.9-0.2c0.6-0.1,1.1-0.4,1.4-0.8c0.3-0.3,0.4-0.6,0.6-1.1c0.1-0.3,0.1-0.5,0.1-0.6h2.4v14.9
		h-3v-10.3H432.3z"/>
	<path d="M443.9,606.9c0.4-1,1.4-2,3-3.1c1.3-1,2.2-1.7,2.6-2.1c0.6-0.6,0.9-1.4,0.9-2.1c0-0.6-0.2-1.2-0.5-1.6
		c-0.3-0.4-0.8-0.6-1.5-0.6c-0.9,0-1.5,0.3-1.8,1c-0.2,0.4-0.3,1-0.3,1.8h-2.8c0-1.3,0.3-2.3,0.7-3.1c0.8-1.5,2.2-2.2,4.2-2.2
		c1.6,0,2.8,0.4,3.8,1.3c0.9,0.9,1.4,2,1.4,3.5c0,1.1-0.3,2.1-1,2.9c-0.4,0.6-1.1,1.2-2.1,1.9l-1.2,0.8c-0.7,0.5-1.2,0.9-1.5,1.1
		c-0.3,0.2-0.5,0.5-0.7,0.8h6.5v2.6h-10.2C443.2,608.8,443.5,607.8,443.9,606.9z"/>
	<path d="M455.6,606.9c0.4-1,1.4-2,3-3.1c1.3-1,2.2-1.7,2.6-2.1c0.6-0.6,0.9-1.4,0.9-2.1c0-0.6-0.2-1.2-0.5-1.6
		c-0.3-0.4-0.8-0.6-1.5-0.6c-0.9,0-1.5,0.3-1.8,1c-0.2,0.4-0.3,1-0.3,1.8h-2.8c0-1.3,0.3-2.3,0.7-3.1c0.8-1.5,2.2-2.2,4.2-2.2
		c1.6,0,2.8,0.4,3.8,1.3c0.9,0.9,1.4,2,1.4,3.5c0,1.1-0.3,2.1-1,2.9c-0.4,0.6-1.1,1.2-2.1,1.9l-1.2,0.8c-0.7,0.5-1.2,0.9-1.5,1.1
		c-0.3,0.2-0.5,0.5-0.7,0.8h6.5v2.6h-10.2C454.9,608.8,455.1,607.8,455.6,606.9z"/>
	<path d="M470.7,598.5c0.8,1.8,1.2,3.7,1.2,5.6c0,2.1-0.5,4.1-1.4,6.3c-0.5,1.2-1,2.1-1.5,2.7l-0.7,1h-2.2c0.9-1.6,1.5-3,1.9-4
		c0.6-1.8,0.9-3.7,0.9-5.8c0-1.3-0.1-2.6-0.3-3.7c-0.3-1.7-0.9-3.4-1.8-5l-0.6-1.1h2.2C469.4,595.9,470.2,597.3,470.7,598.5z"/>
</g>
<g>
	<path d="M305.6,234.9l2.1,0l0.8-3l-2.1,0l0.4-1.7l2.1,0l1.1-4.2l2,0l-1.1,4.2l1.7,0l1.1-4.2l2,0l-1.1,4.2l2.1,0l-0.4,1.7l-2.1,0
		l-0.8,3l2.1,0l-0.4,1.7l-2.1,0l-1,4.1l-2,0l1-4.1l-1.7,0l-1.1,4.1l-2,0l1.1-4.1l-2.1,0L305.6,234.9z M311.5,234.9l0.8-3l-1.7,0
		l-0.8,3L311.5,234.9z"/>
	<path d="M325.4,229.5c0.8,0.3,1.4,0.9,2,1.6c0.5,0.7,0.8,1.4,0.9,2.3c0.1,0.5,0.1,1.3,0.1,2.2l-8.1,0.1c0.1,1.1,0.5,1.9,1.2,2.3
		c0.4,0.3,1,0.4,1.6,0.4c0.7,0,1.2-0.2,1.6-0.5c0.2-0.2,0.4-0.4,0.6-0.8l3,0c-0.1,0.7-0.4,1.3-1.1,2c-1,1.1-2.4,1.7-4.2,1.7
		c-1.5,0-2.8-0.4-4-1.3c-1.1-0.9-1.7-2.4-1.8-4.5c0-1.9,0.5-3.4,1.5-4.5c1-1,2.3-1.6,4-1.6C323.8,229,324.7,229.2,325.4,229.5z
		 M321.1,232.1c-0.4,0.4-0.7,1-0.8,1.7l5-0.1c-0.1-0.8-0.3-1.4-0.8-1.8c-0.5-0.4-1.1-0.6-1.7-0.6
		C322.1,231.5,321.5,231.7,321.1,232.1z"/>
	<path d="M338.2,227.3c0.8,1.3,1.2,3.2,1.2,5.7c0,2.5-0.3,4.4-1.1,5.7c-0.7,1.3-2.1,2-4,2c-1.9,0-3.2-0.6-4-1.9
		c-0.8-1.3-1.2-3.2-1.2-5.7c0-2.5,0.3-4.4,1.1-5.7c0.7-1.3,2.1-2,4-2.1C336.1,225.4,337.4,226,338.2,227.3z M332.6,237
		c0.3,0.9,0.9,1.3,1.7,1.3s1.4-0.5,1.7-1.4c0.3-0.9,0.4-2.2,0.4-3.9c0-1.8-0.2-3.1-0.5-4c-0.3-0.9-0.9-1.3-1.7-1.3s-1.4,0.4-1.7,1.3
		c-0.3,0.9-0.4,2.2-0.4,4C332.2,234.8,332.4,236.1,332.6,237z"/>
	<path d="M341.6,230l0-2c0.9-0.1,1.6-0.1,1.9-0.2c0.6-0.1,1.1-0.4,1.4-0.8c0.2-0.3,0.4-0.6,0.6-1.1c0.1-0.3,0.1-0.5,0.1-0.6l2.4,0
		l0.2,14.9l-3,0l-0.1-10.3L341.6,230z"/>
	<path d="M361.6,227c0.8,1.3,1.2,3.2,1.2,5.7c0,2.5-0.3,4.3-1.1,5.7s-2.1,2-4,2c-1.9,0-3.2-0.6-4-1.9c-0.8-1.3-1.2-3.2-1.2-5.7
		c0-2.5,0.3-4.4,1.1-5.7c0.7-1.3,2.1-2,4-2.1C359.5,225,360.8,225.7,361.6,227z M356,236.7c0.3,0.9,0.9,1.3,1.7,1.3
		c0.9,0,1.4-0.5,1.7-1.4c0.3-0.9,0.4-2.2,0.4-3.9c0-1.8-0.2-3.1-0.5-4c-0.3-0.9-0.9-1.3-1.7-1.3c-0.9,0-1.4,0.5-1.7,1.3
		c-0.3,0.9-0.4,2.2-0.4,4C355.5,234.5,355.7,235.8,356,236.7z"/>
	<path d="M365,229.7l0-2c0.9-0.1,1.6-0.1,1.9-0.2c0.6-0.1,1.1-0.4,1.4-0.8c0.2-0.3,0.4-0.6,0.6-1.1c0.1-0.3,0.1-0.5,0.1-0.6l2.4,0
		l0.2,14.9l-3,0l-0.1-10.3L365,229.7z"/>
	<path d="M386.3,236.5l-1.7,0l0,3.2l-2.9,0l0-3.2l-5.9,0.1l0-2.6l5.3-9.1l3.3,0l0.1,9.3l1.7,0L386.3,236.5z M381.7,234.2l-0.1-6.4
		l-3.6,6.5L381.7,234.2z"/>
	<path d="M313,254.4c0,0,0.1,0,0.3,0l0,3c-0.2,0-0.3,0-0.5,0c-0.1,0-0.3,0-0.3,0c-1.2,0-2,0.4-2.4,1.2c-0.2,0.4-0.3,1.1-0.3,2
		l0.1,5.3l-2.9,0l-0.2-11.2l2.8,0l0,1.9c0.4-0.8,0.8-1.3,1.2-1.5c0.5-0.5,1.2-0.7,2.1-0.7C312.9,254.4,313,254.4,313,254.4z"/>
	<path d="M320.5,254.6c0.7,0.3,1.3,0.8,1.7,1.6l0-1.6l2.9,0l0.1,10.6c0,1.4-0.2,2.5-0.7,3.3c-0.8,1.3-2.4,1.9-4.8,2
		c-1.4,0-2.6-0.2-3.5-0.8c-0.9-0.5-1.4-1.4-1.5-2.5l3.2,0c0.1,0.3,0.2,0.6,0.4,0.7c0.3,0.3,0.8,0.4,1.6,0.4c1.1,0,1.8-0.4,2.1-1.1
		c0.2-0.5,0.3-1.2,0.3-2.3l0-0.7c-0.3,0.5-0.6,0.8-0.9,1.1c-0.6,0.5-1.3,0.7-2.3,0.7c-1.4,0-2.6-0.5-3.5-1.5c-0.9-1-1.3-2.4-1.3-4.1
		c0-1.7,0.4-3.1,1.2-4.2c0.8-1.1,2-1.7,3.5-1.7C319.6,254.3,320.1,254.4,320.5,254.6z M321.6,262.6c0.5-0.5,0.7-1.3,0.7-2.5
		c0-1.1-0.2-1.9-0.7-2.4c-0.5-0.5-1.1-0.8-1.8-0.8c-1,0-1.7,0.5-2.1,1.5c-0.2,0.5-0.3,1.1-0.3,1.9c0,0.6,0.1,1.2,0.4,1.7
		c0.4,0.9,1.1,1.4,2.1,1.4C320.6,263.4,321.2,263.1,321.6,262.6z"/>
	<path d="M337.4,255.7c0.9,1,1.3,2.4,1.3,4.1c0,1.7-0.4,3.2-1.2,4.3c-0.8,1.2-2,1.7-3.4,1.8c-0.9,0-1.7-0.2-2.2-0.5
		c-0.3-0.2-0.7-0.6-1.1-1.1l0,1.4l-2.9,0l-0.2-15.1l2.9,0l0.1,5.4c0.4-0.5,0.8-0.9,1.2-1.2c0.5-0.3,1.2-0.5,2-0.5
		C335.4,254.1,336.5,254.6,337.4,255.7z M335,262.5c0.4-0.6,0.6-1.4,0.6-2.4c0-0.8-0.1-1.4-0.3-2c-0.4-1-1.1-1.5-2.2-1.4
		c-1.1,0-1.8,0.5-2.2,1.5c-0.2,0.5-0.3,1.2-0.3,2c0,1,0.2,1.7,0.7,2.4c0.4,0.6,1.1,0.9,2,0.9C334,263.5,334.6,263.1,335,262.5z"/>
	<path d="M341.4,254.2c0.5-1.3,1.3-2.6,2.3-4.1l2.2,0l-0.6,1.2c-0.8,1.6-1.4,3.3-1.7,5c-0.2,1.1-0.3,2.4-0.3,3.7c0,2.1,0.4,4,1,5.8
		c0.4,1,1,2.4,1.9,4l-2.2,0l-0.7-1c-0.5-0.6-1-1.5-1.5-2.7c-1-2.1-1.5-4.2-1.5-6.3C340.2,257.9,340.6,256,341.4,254.2z"/>
	<path d="M347.7,262.5c0.4-1,1.4-2.1,2.9-3.2c1.3-1,2.2-1.7,2.6-2.1c0.6-0.7,0.9-1.4,0.9-2.1c0-0.6-0.2-1.1-0.5-1.6
		c-0.4-0.4-0.9-0.6-1.5-0.6c-0.9,0-1.5,0.4-1.8,1c-0.2,0.4-0.3,1-0.3,1.8l-2.8,0c0-1.3,0.2-2.3,0.6-3.1c0.8-1.5,2.1-2.3,4.1-2.3
		c1.6,0,2.8,0.4,3.8,1.3c0.9,0.9,1.4,2,1.4,3.4c0,1.1-0.3,2.1-0.9,2.9c-0.4,0.6-1.1,1.2-2.1,1.9l-1.2,0.8c-0.7,0.5-1.2,0.9-1.5,1.1
		c-0.3,0.2-0.5,0.5-0.7,0.8l6.5-0.1l0,2.6l-10.2,0.1C347.1,264.3,347.3,263.3,347.7,262.5z"/>
	<path d="M359.4,262.3c0.4-1,1.4-2.1,2.9-3.2c1.3-1,2.2-1.7,2.6-2.1c0.6-0.7,0.9-1.4,0.9-2.1c0-0.6-0.2-1.1-0.5-1.6
		c-0.4-0.4-0.9-0.6-1.5-0.6c-0.9,0-1.5,0.4-1.8,1c-0.2,0.4-0.3,1-0.3,1.8l-2.8,0c0-1.3,0.2-2.3,0.6-3.1c0.8-1.5,2.1-2.3,4.1-2.3
		c1.6,0,2.8,0.4,3.8,1.3c0.9,0.9,1.4,2,1.4,3.4c0,1.1-0.3,2.1-0.9,2.9c-0.4,0.6-1.1,1.2-2.1,1.9l-1.2,0.8c-0.7,0.5-1.2,0.9-1.5,1.1
		c-0.3,0.2-0.5,0.5-0.7,0.8l6.5-0.1l0,2.6l-10.2,0.1C358.8,264.2,359,263.2,359.4,262.3z"/>
	<path d="M380.7,261.7l-1.7,0l0,3.2l-2.9,0l0-3.2l-5.9,0.1l0-2.6l5.3-9.1l3.3,0l0.1,9.3l1.7,0L380.7,261.7z M376.2,259.5l-0.1-6.4
		l-3.6,6.5L376.2,259.5z"/>
	<path d="M382.7,267.3c0.6-0.2,1-0.5,1.3-0.8c0.3-0.4,0.4-0.9,0.5-1.6l-1.8,0l0-3.1l3.2,0l0,2.7c0,0.5,0,1-0.2,1.5
		c-0.1,0.5-0.3,0.9-0.7,1.3c-0.4,0.4-0.8,0.7-1.3,0.9c-0.5,0.2-0.8,0.3-1,0.3L382.7,267.3z"/>
	<path d="M394.5,254.5l0-2c0.9-0.1,1.6-0.1,1.9-0.2c0.6-0.1,1.1-0.4,1.4-0.8c0.2-0.3,0.4-0.6,0.6-1.1c0.1-0.3,0.1-0.5,0.1-0.6l2.4,0
		l0.2,14.9l-3,0l-0.1-10.3L394.5,254.5z"/>
	<path d="M412.4,253.4c0-0.2-0.1-0.5-0.3-0.8c-0.3-0.5-0.8-0.7-1.4-0.7c-1,0-1.6,0.6-2,1.6c-0.2,0.6-0.3,1.5-0.4,2.6
		c0.4-0.4,0.8-0.8,1.2-1s1-0.3,1.6-0.3c1.3,0,2.4,0.4,3.3,1.3s1.3,2,1.3,3.4c0,1.4-0.4,2.6-1.2,3.7c-0.8,1.1-2.1,1.6-3.8,1.6
		c-1.9,0-3.3-0.7-4.2-2.3c-0.7-1.2-1.1-2.8-1.1-4.7c0-1.1,0-2.1,0.1-2.8c0.2-1.3,0.5-2.3,1-3.2c0.4-0.7,1-1.3,1.6-1.8
		c0.7-0.4,1.5-0.7,2.5-0.7c1.4,0,2.5,0.3,3.3,1c0.8,0.7,1.3,1.6,1.4,2.8L412.4,253.4z M409,261.8c0.4,0.5,1,0.7,1.7,0.7
		c0.6,0,1.2-0.3,1.5-0.8s0.5-1.1,0.5-1.9c0-0.9-0.2-1.5-0.7-2c-0.4-0.5-1-0.7-1.6-0.7c-0.5,0-0.9,0.2-1.3,0.5
		c-0.6,0.5-0.8,1.2-0.8,2.2C408.3,260.6,408.6,261.3,409,261.8z"/>
	<path d="M417.7,266.9c0.6-0.2,1-0.5,1.3-0.8c0.3-0.4,0.4-0.9,0.5-1.6l-1.8,0l0-3.1l3.2,0l0,2.7c0,0.5,0,1-0.2,1.5
		c-0.1,0.5-0.3,0.9-0.7,1.3c-0.4,0.4-0.8,0.7-1.3,0.9c-0.5,0.2-0.8,0.3-1,0.3L417.7,266.9z"/>
	<path d="M429.5,261.3c0.4-1,1.4-2.1,2.9-3.2c1.3-1,2.2-1.7,2.6-2.1c0.6-0.7,0.9-1.4,0.9-2.1c0-0.6-0.2-1.1-0.5-1.6
		c-0.4-0.4-0.9-0.6-1.5-0.6c-0.9,0-1.5,0.4-1.8,1c-0.2,0.4-0.3,1-0.3,1.8l-2.8,0c0-1.3,0.2-2.3,0.6-3.1c0.8-1.5,2.1-2.3,4.1-2.3
		c1.6,0,2.8,0.4,3.8,1.3c0.9,0.9,1.4,2,1.4,3.4c0,1.1-0.3,2.1-0.9,2.9c-0.4,0.6-1.1,1.2-2.1,1.9l-1.2,0.8c-0.7,0.5-1.2,0.9-1.5,1.1
		c-0.3,0.2-0.5,0.5-0.7,0.8l6.5-0.1l0,2.6l-10.2,0.1C428.8,263.2,429,262.2,429.5,261.3z"/>
	<path d="M449.4,251c0.8,1.3,1.2,3.2,1.2,5.7c0,2.5-0.3,4.4-1.1,5.7c-0.7,1.3-2.1,2-4,2c-1.9,0-3.2-0.6-4-1.9
		c-0.8-1.3-1.2-3.2-1.2-5.7c0-2.5,0.3-4.4,1.1-5.7c0.7-1.3,2.1-2,4-2.1C447.3,249.1,448.6,249.7,449.4,251z M443.9,260.7
		c0.3,0.9,0.9,1.3,1.7,1.3s1.4-0.5,1.7-1.4c0.3-0.9,0.4-2.2,0.4-3.9c0-1.8-0.2-3.1-0.5-4c-0.3-0.9-0.9-1.3-1.7-1.3s-1.4,0.4-1.7,1.3
		s-0.4,2.2-0.4,4C443.4,258.5,443.6,259.8,443.9,260.7z"/>
	<path d="M456.2,252.6c0.8,1.8,1.2,3.7,1.3,5.6c0,2.1-0.4,4.2-1.3,6.3c-0.5,1.2-1,2.1-1.5,2.7l-0.7,1l-2.2,0c0.9-1.6,1.5-3,1.8-4
		c0.6-1.8,0.9-3.7,0.8-5.8c0-1.3-0.1-2.6-0.4-3.7c-0.4-1.7-1-3.4-1.9-4.9l-0.6-1.1l2.2,0C454.8,250,455.6,251.4,456.2,252.6z"/>
</g>
<g>
	<path d="M575.6,237.9l2.1,0l0.8-3l-2.1,0l0.4-1.7l2.1,0l1.1-4.2l2,0l-1.1,4.2l1.7,0l1.1-4.2l2,0l-1.1,4.2l2.1,0l-0.4,1.7l-2.1,0
		l-0.8,3l2.1,0l-0.4,1.7l-2.1,0l-1,4.1l-2,0l1-4.1l-1.7,0l-1.1,4.1l-2,0l1.1-4.1l-2.1,0L575.6,237.9z M581.4,237.9l0.8-3l-1.7,0
		l-0.8,3L581.4,237.9z"/>
	<path d="M588.2,240.7c0.4-1,1.4-2.1,2.9-3.2c1.3-1,2.2-1.7,2.6-2.1c0.6-0.7,0.9-1.4,0.9-2.1c0-0.6-0.2-1.1-0.5-1.6
		c-0.4-0.4-0.9-0.6-1.5-0.6c-0.9,0-1.5,0.4-1.8,1c-0.2,0.4-0.3,1-0.3,1.8l-2.8,0c0-1.3,0.2-2.3,0.6-3.1c0.8-1.5,2.1-2.3,4.1-2.3
		c1.6,0,2.8,0.4,3.8,1.3c0.9,0.9,1.4,2,1.4,3.4c0,1.1-0.3,2.1-0.9,2.9c-0.4,0.6-1.1,1.2-2.1,1.9l-1.2,0.8c-0.7,0.5-1.2,0.9-1.5,1.1
		c-0.3,0.2-0.5,0.5-0.7,0.8l6.5-0.1l0,2.6l-10.2,0.1C587.6,242.5,587.8,241.5,588.2,240.7z"/>
	<path d="M604.3,236.6c0.5-0.1,0.9-0.2,1.2-0.3c0.4-0.2,0.6-0.5,0.6-0.8c0-0.5-0.2-0.8-0.5-0.9c-0.3-0.2-0.8-0.3-1.4-0.2
		c-0.7,0-1.2,0.2-1.5,0.5c-0.2,0.3-0.3,0.6-0.4,1l-2.8,0c0-1,0.3-1.8,0.8-2.4c0.8-1,2.1-1.5,4-1.5c1.2,0,2.3,0.2,3.3,0.7
		c1,0.5,1.5,1.4,1.5,2.7l0.1,5.1c0,0.4,0,0.8,0,1.3c0,0.4,0.1,0.6,0.2,0.8c0.1,0.1,0.2,0.2,0.4,0.3l0,0.4l-3.2,0
		c-0.1-0.2-0.2-0.4-0.2-0.6c0-0.2-0.1-0.4-0.1-0.7c-0.4,0.4-0.9,0.8-1.4,1.1c-0.6,0.4-1.3,0.6-2.1,0.6c-1,0-1.9-0.3-2.5-0.8
		c-0.7-0.6-1-1.4-1-2.4c0-1.4,0.5-2.4,1.6-3c0.6-0.3,1.4-0.6,2.6-0.8L604.3,236.6z M606.1,237.9c-0.2,0.1-0.4,0.2-0.6,0.3
		c-0.2,0.1-0.5,0.1-0.8,0.2l-0.7,0.1c-0.6,0.1-1.1,0.3-1.3,0.4c-0.5,0.3-0.7,0.7-0.7,1.2c0,0.5,0.2,0.9,0.4,1.1
		c0.3,0.2,0.6,0.3,1,0.3c0.6,0,1.2-0.2,1.8-0.6c0.5-0.4,0.8-1.1,0.8-2L606.1,237.9z"/>
	<path d="M612.1,229.7c0.9-1,2.1-1.5,3.6-1.5c2.3,0,3.8,1,4.7,2.9c0.5,1.1,0.8,2.6,0.8,4.5c0,1.8-0.2,3.3-0.6,4.5
		c-0.8,2.3-2.4,3.5-4.8,3.5c-1.1,0-2.1-0.3-3-0.9c-0.9-0.6-1.4-1.6-1.6-2.9l2.9,0c0.1,0.4,0.3,0.8,0.6,1.1c0.3,0.3,0.7,0.4,1.2,0.4
		c1,0,1.6-0.6,2-1.6c0.2-0.6,0.3-1.5,0.4-2.6c-0.3,0.3-0.5,0.6-0.8,0.8c-0.5,0.3-1.2,0.5-2,0.5c-1.2,0-2.2-0.4-3.2-1.2
		c-0.9-0.8-1.4-2-1.4-3.5C610.8,232,611.2,230.7,612.1,229.7z M617.1,235.6c0.7-0.4,1-1.2,1-2.2c0-0.8-0.2-1.5-0.6-2
		c-0.4-0.5-0.9-0.7-1.6-0.7c-0.5,0-0.9,0.2-1.3,0.4c-0.6,0.4-0.8,1.2-0.8,2.2c0,0.9,0.2,1.5,0.6,2c0.4,0.4,0.9,0.6,1.7,0.6
		C616.4,235.9,616.8,235.8,617.1,235.6z"/>
	<path d="M629.9,235.8c-0.1-0.4-0.2-0.8-0.4-1.1c-0.3-0.4-0.8-0.7-1.5-0.7c-1,0-1.7,0.5-2,1.5c-0.2,0.5-0.3,1.2-0.3,2.1
		c0,0.8,0.1,1.5,0.3,2c0.4,0.9,1,1.4,2,1.4c0.7,0,1.2-0.2,1.5-0.6c0.3-0.4,0.5-0.9,0.5-1.4l3,0c-0.1,0.9-0.4,1.7-0.9,2.5
		c-0.9,1.3-2.2,1.9-4,2c-1.8,0-3.1-0.5-4-1.5c-0.9-1.1-1.3-2.4-1.3-4.1c0-1.9,0.4-3.4,1.3-4.5c0.9-1.1,2.2-1.6,3.9-1.7
		c1.4,0,2.6,0.3,3.5,0.9c0.9,0.6,1.4,1.7,1.6,3.3L629.9,235.8z"/>
	<path d="M639.3,236.1c0.5-0.1,0.9-0.2,1.2-0.3c0.4-0.2,0.6-0.5,0.6-0.8c0-0.5-0.2-0.8-0.5-0.9c-0.3-0.2-0.8-0.3-1.4-0.2
		c-0.7,0-1.2,0.2-1.5,0.5c-0.2,0.3-0.3,0.6-0.4,1l-2.8,0c0-1,0.3-1.8,0.8-2.4c0.8-1,2.1-1.5,4-1.5c1.2,0,2.3,0.2,3.3,0.7
		c1,0.5,1.5,1.4,1.5,2.7l0.1,5.1c0,0.4,0,0.8,0,1.3c0,0.4,0.1,0.6,0.2,0.8c0.1,0.1,0.2,0.2,0.4,0.3l0,0.4l-3.2,0
		c-0.1-0.2-0.2-0.4-0.2-0.6c0-0.2-0.1-0.4-0.1-0.7c-0.4,0.4-0.9,0.8-1.4,1.1c-0.6,0.4-1.3,0.6-2.1,0.6c-1,0-1.9-0.3-2.5-0.8
		c-0.7-0.6-1-1.4-1-2.4c0-1.4,0.5-2.4,1.6-3c0.6-0.3,1.4-0.6,2.6-0.8L639.3,236.1z M641.2,237.4c-0.2,0.1-0.4,0.2-0.6,0.3
		c-0.2,0.1-0.5,0.1-0.8,0.2l-0.7,0.1c-0.6,0.1-1.1,0.3-1.3,0.4c-0.5,0.3-0.7,0.7-0.7,1.2c0,0.5,0.2,0.9,0.4,1.1
		c0.3,0.2,0.6,0.3,1,0.3c0.6,0,1.2-0.2,1.8-0.6c0.5-0.4,0.8-1.1,0.8-2L641.2,237.4z"/>
	<path d="M647.1,229.3c0.9-1,2.1-1.5,3.6-1.5c2.3,0,3.8,0.9,4.7,2.9c0.5,1.1,0.8,2.6,0.8,4.5c0,1.8-0.2,3.3-0.6,4.5
		c-0.8,2.3-2.4,3.5-4.8,3.5c-1.1,0-2.1-0.3-3-0.9c-0.9-0.6-1.4-1.6-1.6-2.9l2.9,0c0.1,0.4,0.3,0.8,0.6,1.1c0.3,0.3,0.7,0.4,1.2,0.4
		c1,0,1.6-0.6,2-1.6c0.2-0.6,0.3-1.5,0.4-2.6c-0.3,0.3-0.5,0.6-0.8,0.8c-0.5,0.3-1.2,0.5-2,0.5c-1.2,0-2.2-0.4-3.2-1.2
		c-0.9-0.8-1.4-2-1.4-3.5C645.8,231.6,646.2,230.3,647.1,229.3z M652.1,235.1c0.7-0.4,1-1.2,1-2.2c0-0.8-0.2-1.5-0.6-2
		c-0.4-0.5-0.9-0.7-1.6-0.7c-0.5,0-0.9,0.2-1.3,0.4c-0.6,0.4-0.8,1.2-0.8,2.2c0,0.9,0.2,1.5,0.6,2c0.4,0.4,0.9,0.6,1.7,0.6
		C651.4,235.5,651.8,235.3,652.1,235.1z"/>
	<path d="M583,257.4c0,0,0.1,0,0.3,0l0,3c-0.2,0-0.3,0-0.5,0c-0.1,0-0.3,0-0.3,0c-1.2,0-2,0.4-2.4,1.2c-0.2,0.4-0.3,1.1-0.3,2
		l0.1,5.3l-2.9,0l-0.2-11.2l2.8,0l0,1.9c0.4-0.8,0.8-1.3,1.2-1.5c0.5-0.5,1.2-0.7,2.1-0.7C582.9,257.4,583,257.4,583,257.4z"/>
	<path d="M590.5,257.6c0.7,0.3,1.3,0.8,1.7,1.6l0-1.6l2.9,0l0.1,10.6c0,1.4-0.2,2.5-0.7,3.3c-0.8,1.3-2.4,1.9-4.8,2
		c-1.4,0-2.6-0.2-3.5-0.8c-0.9-0.5-1.4-1.4-1.5-2.5l3.2,0c0.1,0.3,0.2,0.6,0.4,0.7c0.3,0.3,0.8,0.4,1.6,0.4c1.1,0,1.8-0.4,2.1-1.1
		c0.2-0.5,0.3-1.2,0.3-2.3l0-0.7c-0.3,0.5-0.6,0.8-0.9,1.1c-0.6,0.5-1.3,0.7-2.3,0.7c-1.4,0-2.6-0.5-3.5-1.5c-0.9-1-1.3-2.4-1.3-4.1
		c0-1.7,0.4-3.1,1.2-4.2c0.8-1.1,2-1.7,3.5-1.7C589.6,257.3,590.1,257.4,590.5,257.6z M591.6,265.6c0.5-0.5,0.7-1.3,0.7-2.5
		c0-1.1-0.2-1.9-0.7-2.4c-0.5-0.5-1.1-0.8-1.8-0.8c-1,0-1.7,0.5-2.1,1.5c-0.2,0.5-0.3,1.1-0.3,1.9c0,0.6,0.1,1.2,0.4,1.7
		c0.4,0.9,1.1,1.4,2.1,1.4C590.6,266.4,591.2,266.1,591.6,265.6z"/>
	<path d="M607.4,258.7c0.9,1,1.3,2.4,1.3,4.1c0,1.7-0.4,3.2-1.2,4.3c-0.8,1.2-2,1.7-3.4,1.8c-0.9,0-1.7-0.2-2.2-0.5
		c-0.3-0.2-0.7-0.6-1.1-1.1l0,1.4l-2.9,0l-0.2-15.1l2.9,0l0.1,5.4c0.4-0.5,0.8-0.9,1.2-1.2c0.5-0.3,1.2-0.5,2-0.5
		C605.4,257.1,606.5,257.6,607.4,258.7z M605,265.5c0.4-0.6,0.6-1.4,0.6-2.4c0-0.8-0.1-1.4-0.3-2c-0.4-1-1.1-1.5-2.2-1.4
		c-1.1,0-1.8,0.5-2.2,1.5c-0.2,0.5-0.3,1.2-0.3,2c0,1,0.2,1.7,0.7,2.4c0.4,0.6,1.1,0.9,2,0.9C604,266.5,604.6,266.1,605,265.5z"/>
	<path d="M611.4,257.2c0.5-1.3,1.3-2.6,2.3-4.1l2.2,0l-0.6,1.2c-0.8,1.6-1.4,3.3-1.7,5c-0.2,1.1-0.3,2.4-0.3,3.7c0,2.1,0.4,4,1,5.8
		c0.4,1,1,2.4,1.9,4l-2.2,0l-0.7-1c-0.5-0.6-1-1.5-1.5-2.7c-1-2.1-1.5-4.2-1.5-6.3C610.2,260.9,610.6,259,611.4,257.2z"/>
	<path d="M627.4,265.1l-1.7,0l0,3.2l-2.9,0l0-3.2l-5.9,0.1l0-2.6l5.3-9.1l3.3,0l0.1,9.3l1.7,0L627.4,265.1z M622.8,262.8l-0.1-6.4
		l-3.6,6.5L622.8,262.8z"/>
	<path d="M629.4,265.3c0.4-1,1.4-2.1,2.9-3.2c1.3-1,2.2-1.7,2.6-2.1c0.6-0.7,0.9-1.4,0.9-2.1c0-0.6-0.2-1.1-0.5-1.6
		c-0.4-0.4-0.9-0.6-1.5-0.6c-0.9,0-1.5,0.4-1.8,1c-0.2,0.4-0.3,1-0.3,1.8l-2.8,0c0-1.3,0.2-2.3,0.6-3.1c0.8-1.5,2.1-2.3,4.1-2.3
		c1.6,0,2.8,0.4,3.8,1.3c0.9,0.9,1.4,2,1.4,3.4c0,1.1-0.3,2.1-0.9,2.9c-0.4,0.6-1.1,1.2-2.1,1.9l-1.2,0.8c-0.7,0.5-1.2,0.9-1.5,1.1
		c-0.3,0.2-0.5,0.5-0.7,0.8l6.5-0.1l0,2.6l-10.2,0.1C628.8,267.2,629,266.2,629.4,265.3z"/>
	<path d="M641,270.5c0.6-0.2,1-0.5,1.3-0.8c0.3-0.4,0.4-0.9,0.5-1.6l-1.8,0l0-3.1l3.2,0l0,2.7c0,0.5,0,1-0.2,1.5
		c-0.1,0.5-0.3,0.9-0.7,1.3c-0.4,0.4-0.8,0.7-1.3,0.9c-0.5,0.2-0.8,0.3-1,0.3L641,270.5z"/>
	<path d="M652.8,257.6l0-2c0.9-0.1,1.6-0.1,1.9-0.2c0.6-0.1,1.1-0.4,1.4-0.8c0.2-0.3,0.4-0.6,0.6-1.1c0.1-0.3,0.1-0.5,0.1-0.6l2.4,0
		l0.2,14.9l-3,0l-0.1-10.3L652.8,257.6z"/>
	<path d="M666.5,263.7c0.1,0.6,0.4,1.1,0.7,1.5c0.3,0.3,0.8,0.5,1.4,0.5c0.7,0,1.3-0.3,1.6-0.8c0.4-0.5,0.6-1.2,0.5-1.9
		c0-0.8-0.2-1.4-0.6-1.9c-0.4-0.5-0.9-0.8-1.7-0.8c-0.4,0-0.7,0.1-0.9,0.1c-0.5,0.2-0.8,0.5-1,0.9l-2.6-0.1l0.9-8.2l8.2-0.1l0,2.5
		l-6.1,0.1l-0.5,3.3c0.4-0.3,0.8-0.5,1-0.6c0.4-0.2,0.9-0.2,1.5-0.3c1.2,0,2.3,0.4,3.2,1.2c0.9,0.8,1.4,2,1.4,3.6
		c0,1.4-0.4,2.6-1.3,3.7c-0.9,1.1-2.2,1.6-3.9,1.7c-1.4,0-2.6-0.3-3.5-1.1c-0.9-0.7-1.4-1.8-1.6-3.2L666.5,263.7z"/>
	<path d="M682.3,256.4c0-0.2-0.1-0.5-0.3-0.8c-0.3-0.5-0.8-0.7-1.4-0.7c-1,0-1.6,0.6-2,1.6c-0.2,0.6-0.3,1.5-0.4,2.6
		c0.4-0.4,0.8-0.8,1.2-1s1-0.3,1.6-0.3c1.3,0,2.4,0.4,3.3,1.3s1.3,2,1.3,3.4c0,1.4-0.4,2.6-1.2,3.7c-0.8,1.1-2.1,1.6-3.8,1.6
		c-1.9,0-3.3-0.7-4.2-2.3c-0.7-1.2-1.1-2.8-1.1-4.7c0-1.1,0-2.1,0.1-2.8c0.2-1.3,0.5-2.3,1-3.2c0.4-0.7,1-1.3,1.6-1.8
		c0.7-0.4,1.5-0.7,2.5-0.7c1.4,0,2.5,0.3,3.3,1c0.8,0.7,1.3,1.6,1.4,2.8L682.3,256.4z M679,264.8c0.4,0.5,1,0.7,1.7,0.7
		c0.6,0,1.2-0.3,1.5-0.8s0.5-1.1,0.5-1.9c0-0.9-0.2-1.5-0.7-2c-0.4-0.5-1-0.7-1.6-0.7c-0.5,0-0.9,0.2-1.3,0.5
		c-0.6,0.5-0.8,1.2-0.8,2.2C678.3,263.6,678.6,264.3,679,264.8z"/>
	<path d="M687.7,269.9c0.6-0.2,1-0.5,1.3-0.8c0.3-0.4,0.4-0.9,0.5-1.6l-1.8,0l0-3.1l3.2,0l0,2.7c0,0.5,0,1-0.2,1.5
		c-0.1,0.5-0.3,0.9-0.7,1.3c-0.4,0.4-0.8,0.7-1.3,0.9c-0.5,0.2-0.8,0.3-1,0.3L687.7,269.9z"/>
	<path d="M699.5,257l0-2c0.9-0.1,1.6-0.1,1.9-0.2c0.6-0.1,1.1-0.4,1.4-0.8c0.2-0.3,0.4-0.6,0.6-1.1c0.1-0.3,0.1-0.5,0.1-0.6l2.4,0
		l0.2,14.9l-3,0L703,257L699.5,257z"/>
	<path d="M717.4,255.9c0-0.2-0.1-0.5-0.3-0.8c-0.3-0.5-0.8-0.7-1.4-0.7c-1,0-1.6,0.6-2,1.6c-0.2,0.6-0.3,1.5-0.4,2.6
		c0.4-0.4,0.8-0.8,1.2-1c0.5-0.2,1-0.3,1.6-0.3c1.3,0,2.4,0.4,3.3,1.3c0.9,0.9,1.3,2,1.3,3.4c0,1.4-0.4,2.6-1.2,3.7
		c-0.8,1.1-2.1,1.6-3.8,1.6c-1.9,0-3.3-0.7-4.2-2.3c-0.7-1.2-1.1-2.8-1.1-4.7c0-1.1,0-2.1,0.1-2.8c0.2-1.3,0.5-2.3,1-3.2
		c0.4-0.7,1-1.3,1.6-1.8c0.7-0.4,1.5-0.7,2.5-0.7c1.4,0,2.5,0.3,3.3,1c0.8,0.7,1.3,1.6,1.4,2.8L717.4,255.9z M714,264.3
		c0.4,0.5,1,0.7,1.7,0.7c0.6,0,1.2-0.3,1.5-0.8s0.5-1.1,0.5-1.9c0-0.9-0.2-1.5-0.7-2c-0.4-0.5-1-0.7-1.6-0.7c-0.5,0-0.9,0.2-1.3,0.5
		c-0.6,0.5-0.8,1.2-0.8,2.2C713.4,263.2,713.6,263.8,714,264.3z"/>
	<path d="M723.3,253.4c0.9-1,2.1-1.5,3.6-1.5c2.3,0,3.8,1,4.7,2.9c0.5,1.1,0.8,2.6,0.8,4.5c0,1.8-0.2,3.3-0.6,4.5
		c-0.8,2.3-2.4,3.5-4.8,3.5c-1.1,0-2.1-0.3-3-0.9c-0.9-0.6-1.4-1.6-1.6-2.9l2.9,0c0.1,0.4,0.3,0.8,0.6,1.1c0.3,0.3,0.7,0.4,1.2,0.4
		c1,0,1.6-0.6,2-1.6c0.2-0.6,0.3-1.4,0.4-2.6c-0.3,0.3-0.5,0.6-0.8,0.8c-0.5,0.3-1.2,0.5-2,0.5c-1.2,0-2.2-0.4-3.2-1.2
		c-0.9-0.8-1.4-2-1.4-3.5C722,255.7,722.4,254.4,723.3,253.4z M728.3,259.3c0.7-0.4,1-1.2,1-2.2c0-0.8-0.2-1.5-0.6-2
		c-0.4-0.5-0.9-0.7-1.6-0.7c-0.5,0-0.9,0.2-1.3,0.4c-0.6,0.4-0.8,1.2-0.8,2.2c0,0.9,0.2,1.5,0.6,2c0.4,0.4,0.9,0.6,1.7,0.6
		C727.6,259.6,728,259.5,728.3,259.3z"/>
	<path d="M737.9,255.4c0.8,1.8,1.2,3.7,1.3,5.6c0,2.1-0.4,4.2-1.3,6.3c-0.5,1.2-1,2.1-1.5,2.7l-0.7,1l-2.2,0c0.9-1.6,1.5-3,1.8-4
		c0.6-1.8,0.9-3.7,0.8-5.8c0-1.3-0.1-2.6-0.4-3.7c-0.4-1.7-1-3.4-1.9-4.9l-0.6-1.1l2.2,0C736.5,252.9,737.3,254.2,737.9,255.4z"/>
</g>
<g>
	<path d="M848.6,237.9l2.1,0l0.8-3l-2.1,0l0.4-1.7l2.1,0l1.1-4.2l2,0l-1.1,4.2l1.7,0l1.1-4.2l2,0l-1.1,4.2l2.1,0l-0.4,1.7l-2.1,0
		l-0.8,3l2.1,0l-0.4,1.7l-2.1,0l-1,4.1l-2,0l1-4.1l-1.7,0l-1.1,4.1l-2,0l1.1-4.1l-2.1,0L848.6,237.9z M854.4,237.9l0.8-3l-1.7,0
		l-0.8,3L854.4,237.9z"/>
	<path d="M861.2,240.7c0.4-1,1.4-2.1,2.9-3.2c1.3-1,2.2-1.7,2.6-2.1c0.6-0.7,0.9-1.4,0.9-2.1c0-0.6-0.2-1.1-0.5-1.6
		c-0.4-0.4-0.9-0.6-1.5-0.6c-0.9,0-1.5,0.4-1.8,1c-0.2,0.4-0.3,1-0.3,1.8l-2.8,0c0-1.3,0.2-2.3,0.6-3.1c0.8-1.5,2.1-2.3,4.1-2.3
		c1.6,0,2.8,0.4,3.8,1.3c0.9,0.9,1.4,2,1.4,3.4c0,1.1-0.3,2.1-0.9,2.9c-0.4,0.6-1.1,1.2-2.1,1.9l-1.2,0.8c-0.7,0.5-1.2,0.9-1.5,1.1
		c-0.3,0.2-0.5,0.5-0.7,0.8l6.5-0.1l0,2.6l-10.2,0.1C860.6,242.5,860.8,241.5,861.2,240.7z"/>
	<path d="M882.5,230.9c-0.4,0.4-1,1.2-1.8,2.3s-1.4,2.3-1.9,3.4c-0.4,0.9-0.8,2.1-1.1,3.4c-0.3,1.3-0.5,2.4-0.5,3.3l-3,0
		c0.1-2.7,0.9-5.5,2.5-8.4c1.1-1.8,1.9-3.1,2.6-3.8l-7.4,0.1l0-2.6l10.5-0.1L882.5,230.9z"/>
	<path d="M894.1,233.3c0.9,1,1.3,2.4,1.3,4.1c0,1.7-0.4,3.2-1.2,4.3c-0.8,1.2-2,1.7-3.4,1.8c-0.9,0-1.7-0.2-2.2-0.5
		c-0.3-0.2-0.7-0.6-1.1-1.1l0,1.4l-2.9,0l-0.2-15.1l2.9,0l0.1,5.4c0.4-0.5,0.8-0.9,1.2-1.2c0.5-0.3,1.2-0.5,2-0.5
		C892,231.7,893.2,232.3,894.1,233.3z M891.7,240.1c0.4-0.6,0.6-1.4,0.6-2.4c0-0.8-0.1-1.4-0.3-2c-0.4-1-1.1-1.5-2.2-1.4
		c-1.1,0-1.8,0.5-2.2,1.5c-0.2,0.5-0.3,1.2-0.3,2c0,1,0.2,1.7,0.7,2.4s1.1,0.9,2,0.9C890.7,241.1,891.3,240.8,891.7,240.1z"/>
	<path d="M906.9,233.1c0.9,1,1.3,2.4,1.3,4.1c0,1.7-0.4,3.2-1.2,4.3c-0.8,1.2-2,1.7-3.4,1.8c-0.9,0-1.7-0.2-2.2-0.5
		c-0.3-0.2-0.7-0.6-1.1-1.1l0,1.4l-2.9,0l-0.2-15.1l2.9,0l0.1,5.4c0.4-0.5,0.8-0.9,1.2-1.2c0.5-0.3,1.2-0.5,2-0.5
		C904.9,231.6,906,232.1,906.9,233.1z M904.5,240c0.4-0.6,0.6-1.4,0.6-2.4c0-0.8-0.1-1.4-0.3-2c-0.4-1-1.1-1.5-2.2-1.4
		c-1.1,0-1.8,0.5-2.2,1.5c-0.2,0.5-0.3,1.2-0.3,2c0,1,0.2,1.7,0.7,2.4s1.1,0.9,2,0.9C903.5,240.9,904.1,240.6,904.5,240z"/>
	<path d="M910,236.5c0.4-0.7,0.9-1.2,1.6-1.5c-0.7-0.5-1.2-1-1.4-1.5c-0.2-0.6-0.3-1.1-0.3-1.6c0-1.1,0.4-2,1.2-2.8s2-1.2,3.4-1.2
		c1.5,0,2.6,0.3,3.5,1.1c0.8,0.8,1.2,1.7,1.3,2.7c0,0.5-0.1,1-0.3,1.6c-0.2,0.6-0.7,1-1.4,1.5c0.7,0.4,1.3,0.9,1.7,1.6
		c0.4,0.7,0.6,1.4,0.6,2.3c0,1.3-0.4,2.3-1.3,3.2c-0.9,0.9-2.2,1.3-3.9,1.4c-1.7,0-2.9-0.4-3.8-1.3c-0.9-0.9-1.3-1.9-1.3-3.2
		C909.4,238,909.6,237.2,910,236.5z M913.1,240.3c0.4,0.4,0.9,0.6,1.6,0.6c0.7,0,1.2-0.2,1.6-0.6c0.4-0.4,0.6-1,0.5-1.7
		c0-0.8-0.2-1.3-0.6-1.7s-0.9-0.6-1.6-0.6s-1.2,0.2-1.6,0.6c-0.4,0.4-0.6,1-0.6,1.7C912.5,239.3,912.7,239.9,913.1,240.3z
		 M913.1,233.5c0.3,0.3,0.8,0.5,1.4,0.5c0.6,0,1.1-0.2,1.4-0.5c0.3-0.3,0.5-0.8,0.5-1.3c0-0.6-0.2-1-0.5-1.4
		c-0.3-0.3-0.8-0.5-1.4-0.5c-0.6,0-1,0.2-1.4,0.5c-0.3,0.3-0.5,0.8-0.5,1.4C912.6,232.7,912.8,233.2,913.1,233.5z"/>
	<path d="M929.1,231.7c0.8,0.3,1.4,0.9,2,1.6c0.5,0.7,0.8,1.4,0.9,2.3c0.1,0.5,0.1,1.3,0.1,2.2L924,238c0.1,1.1,0.5,1.9,1.2,2.3
		c0.5,0.3,1,0.4,1.6,0.4c0.7,0,1.2-0.2,1.6-0.5c0.2-0.2,0.4-0.4,0.6-0.8l3,0c-0.1,0.7-0.4,1.3-1.1,2c-1,1.1-2.4,1.7-4.2,1.7
		c-1.5,0-2.8-0.4-4-1.3c-1.1-0.9-1.7-2.4-1.8-4.5c0-1.9,0.5-3.4,1.5-4.5c1-1,2.3-1.6,4-1.6C927.4,231.2,928.3,231.4,929.1,231.7z
		 M924.8,234.3c-0.4,0.4-0.7,1-0.8,1.7l5-0.1c-0.1-0.8-0.3-1.4-0.8-1.8c-0.5-0.4-1.1-0.6-1.7-0.6
		C925.8,233.6,925.2,233.9,924.8,234.3z"/>
	<path d="M856,257.4c0,0,0.1,0,0.3,0l0,3c-0.2,0-0.3,0-0.5,0c-0.1,0-0.3,0-0.3,0c-1.2,0-2,0.4-2.4,1.2c-0.2,0.4-0.3,1.1-0.3,2
		l0.1,5.3l-2.9,0l-0.2-11.2l2.8,0l0,1.9c0.4-0.8,0.8-1.3,1.2-1.5c0.5-0.5,1.2-0.7,2.1-0.7C855.9,257.4,856,257.4,856,257.4z"/>
	<path d="M863.5,257.6c0.7,0.3,1.3,0.8,1.7,1.6l0-1.6l2.9,0l0.1,10.6c0,1.4-0.2,2.5-0.7,3.3c-0.8,1.3-2.4,1.9-4.8,2
		c-1.4,0-2.6-0.2-3.5-0.8c-0.9-0.5-1.4-1.4-1.5-2.5l3.2,0c0.1,0.3,0.2,0.6,0.4,0.7c0.3,0.3,0.8,0.4,1.6,0.4c1.1,0,1.8-0.4,2.1-1.1
		c0.2-0.5,0.3-1.2,0.3-2.3l0-0.7c-0.3,0.5-0.6,0.8-0.9,1.1c-0.6,0.5-1.3,0.7-2.3,0.7c-1.4,0-2.6-0.5-3.5-1.5c-0.9-1-1.3-2.4-1.3-4.1
		c0-1.7,0.4-3.1,1.2-4.2c0.8-1.1,2-1.7,3.5-1.7C862.6,257.3,863.1,257.4,863.5,257.6z M864.6,265.6c0.5-0.5,0.7-1.3,0.7-2.5
		c0-1.1-0.2-1.9-0.7-2.4c-0.5-0.5-1.1-0.8-1.8-0.8c-1,0-1.7,0.5-2.1,1.5c-0.2,0.5-0.3,1.1-0.3,1.9c0,0.6,0.1,1.2,0.4,1.7
		c0.4,0.9,1.1,1.4,2.1,1.4C863.6,266.4,864.1,266.1,864.6,265.6z"/>
	<path d="M880.4,258.7c0.9,1,1.3,2.4,1.3,4.1c0,1.7-0.4,3.2-1.2,4.3c-0.8,1.2-2,1.7-3.4,1.8c-0.9,0-1.7-0.2-2.2-0.5
		c-0.3-0.2-0.7-0.6-1.1-1.1l0,1.4l-2.9,0l-0.2-15.1l2.9,0l0.1,5.4c0.4-0.5,0.8-0.9,1.2-1.2c0.5-0.3,1.2-0.5,2-0.5
		C878.3,257.1,879.5,257.6,880.4,258.7z M878,265.5c0.4-0.6,0.6-1.4,0.6-2.4c0-0.8-0.1-1.4-0.3-2c-0.4-1-1.1-1.5-2.2-1.4
		c-1.1,0-1.8,0.5-2.2,1.5c-0.2,0.5-0.3,1.2-0.3,2c0,1,0.2,1.7,0.7,2.4c0.4,0.6,1.1,0.9,2,0.9C877,266.5,877.6,266.1,878,265.5z"/>
	<path d="M884.4,257.2c0.5-1.3,1.3-2.6,2.3-4.1l2.2,0l-0.6,1.2c-0.8,1.6-1.4,3.3-1.7,5c-0.2,1.1-0.3,2.4-0.3,3.7c0,2.1,0.4,4,1,5.8
		c0.4,1,1,2.4,1.9,4l-2.2,0l-0.7-1c-0.5-0.6-1-1.5-1.5-2.7c-1-2.1-1.5-4.2-1.5-6.3C883.2,260.9,883.6,259,884.4,257.2z"/>
	<path d="M892.8,263.8c0,0.6,0.1,1.1,0.3,1.5c0.4,0.7,1,1.1,1.9,1c0.6,0,1.1-0.2,1.5-0.6c0.4-0.4,0.6-1,0.6-1.7c0-1-0.4-1.6-1.2-1.9
		c-0.5-0.2-1.2-0.3-2.1-0.2l0-2.1c0.9,0,1.6-0.1,2-0.3c0.6-0.3,1-0.9,0.9-1.8c0-0.6-0.2-1-0.5-1.4c-0.3-0.4-0.8-0.5-1.4-0.5
		c-0.7,0-1.2,0.2-1.5,0.7c-0.3,0.4-0.5,1-0.4,1.8l-2.7,0c0-0.7,0.1-1.4,0.4-2.1c0.2-0.6,0.6-1.1,1.1-1.6c0.4-0.4,0.8-0.6,1.4-0.8
		c0.5-0.2,1.2-0.3,1.9-0.3c1.4,0,2.6,0.3,3.5,1.1c0.9,0.7,1.3,1.7,1.3,2.9c0,0.9-0.2,1.6-0.7,2.2c-0.3,0.4-0.7,0.6-1,0.8
		c0.3,0,0.7,0.2,1.2,0.7c0.8,0.7,1.1,1.6,1.2,2.8c0,1.3-0.4,2.4-1.3,3.3c-0.9,1-2.1,1.5-3.8,1.5c-2.1,0-3.6-0.6-4.4-2
		c-0.4-0.7-0.7-1.7-0.8-2.9L892.8,263.8z"/>
	<path d="M902.9,254.7c0.9-1,2.1-1.5,3.6-1.5c2.3,0,3.8,0.9,4.7,2.9c0.5,1.1,0.8,2.6,0.8,4.5c0,1.8-0.2,3.3-0.6,4.5
		c-0.8,2.3-2.4,3.5-4.8,3.5c-1.1,0-2.1-0.3-3-0.9c-0.9-0.6-1.4-1.6-1.6-2.9l2.9,0c0.1,0.4,0.3,0.8,0.6,1.1c0.3,0.3,0.7,0.4,1.2,0.4
		c1,0,1.6-0.6,2-1.6c0.2-0.6,0.3-1.5,0.4-2.6c-0.3,0.3-0.5,0.6-0.8,0.8c-0.5,0.3-1.2,0.5-2,0.5c-1.2,0-2.2-0.4-3.2-1.2
		c-0.9-0.8-1.4-2-1.4-3.5C901.6,257,902,255.7,902.9,254.7z M907.9,260.5c0.7-0.4,1-1.2,1-2.2c0-0.8-0.2-1.5-0.6-2
		c-0.4-0.5-0.9-0.7-1.6-0.7c-0.5,0-0.9,0.2-1.3,0.4c-0.6,0.4-0.8,1.2-0.8,2.2c0,0.9,0.2,1.5,0.6,2c0.4,0.4,0.9,0.6,1.7,0.6
		C907.2,260.9,907.5,260.8,907.9,260.5z"/>
	<path d="M914,270.5c0.6-0.2,1-0.5,1.3-0.8c0.3-0.4,0.4-0.9,0.5-1.6l-1.8,0l0-3.1l3.2,0l0,2.7c0,0.5,0,1-0.2,1.5
		c-0.1,0.5-0.3,0.9-0.7,1.3c-0.4,0.4-0.8,0.7-1.3,0.9c-0.5,0.2-0.8,0.3-1,0.3L914,270.5z"/>
	<path d="M925.7,257.6l0-2c0.9-0.1,1.6-0.1,1.9-0.2c0.6-0.1,1.1-0.4,1.4-0.8c0.2-0.3,0.4-0.6,0.6-1.1c0.1-0.3,0.1-0.5,0.1-0.6l2.4,0
		l0.2,14.9l-3,0l-0.1-10.3L925.7,257.6z"/>
	<path d="M937.1,261.4c0.4-0.7,0.9-1.2,1.6-1.5c-0.7-0.5-1.2-1-1.4-1.5c-0.2-0.6-0.3-1.1-0.3-1.6c0-1.1,0.4-2,1.2-2.8
		c0.8-0.8,2-1.2,3.4-1.2c1.5,0,2.6,0.3,3.5,1.1c0.8,0.8,1.2,1.7,1.3,2.7c0,0.5-0.1,1-0.3,1.6c-0.2,0.6-0.7,1-1.4,1.5
		c0.7,0.4,1.3,0.9,1.7,1.6c0.4,0.7,0.6,1.4,0.6,2.3c0,1.3-0.4,2.3-1.3,3.2c-0.9,0.9-2.2,1.3-3.9,1.4s-2.9-0.4-3.8-1.3
		c-0.9-0.9-1.3-1.9-1.3-3.2C936.6,262.8,936.8,262,937.1,261.4z M940.2,265.1c0.4,0.4,0.9,0.6,1.6,0.6c0.7,0,1.2-0.2,1.6-0.6
		c0.4-0.4,0.6-1,0.5-1.7c0-0.8-0.2-1.3-0.6-1.7s-0.9-0.6-1.6-0.6c-0.7,0-1.2,0.2-1.6,0.6c-0.4,0.4-0.6,1-0.6,1.7
		C939.6,264.1,939.8,264.7,940.2,265.1z M940.3,258.3c0.3,0.3,0.8,0.5,1.4,0.5c0.6,0,1.1-0.2,1.4-0.5c0.3-0.3,0.5-0.8,0.5-1.3
		c0-0.6-0.2-1-0.5-1.4c-0.3-0.3-0.8-0.5-1.4-0.5c-0.6,0-1,0.2-1.4,0.5c-0.3,0.3-0.5,0.8-0.5,1.4C939.8,257.5,940,258,940.3,258.3z"
		/>
	<path d="M958.7,255.1c-0.4,0.4-1,1.2-1.8,2.3c-0.8,1.1-1.4,2.3-1.9,3.4c-0.4,0.9-0.8,2.1-1.1,3.4c-0.3,1.3-0.5,2.4-0.5,3.3l-3,0
		c0.1-2.7,0.9-5.4,2.5-8.4c1-1.8,1.9-3.1,2.6-3.8l-7.4,0.1l0-2.6l10.5-0.1L958.7,255.1z"/>
	<path d="M960.7,269.9c0.6-0.2,1-0.5,1.3-0.8c0.3-0.4,0.4-0.9,0.5-1.6l-1.8,0l0-3.1l3.2,0l0,2.7c0,0.5,0,1-0.2,1.5
		c-0.1,0.5-0.3,0.9-0.7,1.3c-0.4,0.4-0.8,0.7-1.3,0.9c-0.5,0.2-0.8,0.3-1,0.3L960.7,269.9z"/>
	<path d="M972.4,257l0-2c0.9-0.1,1.6-0.1,1.9-0.2c0.6-0.1,1.1-0.4,1.4-0.8c0.2-0.3,0.4-0.6,0.6-1.1c0.1-0.3,0.1-0.5,0.1-0.6l2.4,0
		l0.2,14.9l-3,0l-0.1-10.3L972.4,257z"/>
	<path d="M993.7,263.8l-1.7,0l0,3.2l-2.9,0l0-3.2l-5.9,0.1l0-2.6l5.3-9.1l3.3,0l0.1,9.3l1.7,0L993.7,263.8z M989.2,261.6l-0.1-6.4
		l-3.6,6.5L989.2,261.6z"/>
	<path d="M995.8,264c0.4-1,1.4-2.1,2.9-3.2c1.3-1,2.2-1.7,2.6-2.1c0.6-0.7,0.9-1.4,0.9-2.1c0-0.6-0.2-1.1-0.5-1.6
		c-0.4-0.4-0.9-0.6-1.5-0.6c-0.9,0-1.5,0.4-1.8,1c-0.2,0.4-0.3,1-0.3,1.8l-2.8,0c0-1.3,0.2-2.3,0.6-3.1c0.8-1.5,2.1-2.3,4.1-2.3
		c1.6,0,2.8,0.4,3.8,1.3c0.9,0.9,1.4,2,1.4,3.4c0,1.1-0.3,2.1-0.9,2.9c-0.4,0.6-1.1,1.2-2.1,1.9l-1.2,0.8c-0.7,0.5-1.2,0.9-1.5,1.1
		c-0.3,0.2-0.5,0.5-0.7,0.8l6.5-0.1l0,2.6l-10.2,0.1C995.2,265.9,995.4,264.9,995.8,264z"/>
	<path d="M1010.8,255.4c0.8,1.8,1.2,3.7,1.3,5.6c0,2.1-0.4,4.2-1.3,6.3c-0.5,1.2-1,2.1-1.5,2.7l-0.7,1l-2.2,0c0.9-1.6,1.5-3,1.8-4
		c0.6-1.8,0.9-3.7,0.8-5.8c0-1.3-0.1-2.6-0.4-3.7c-0.4-1.7-1-3.4-1.9-4.9l-0.6-1.1l2.2,0C1009.5,252.9,1010.3,254.2,1010.8,255.4z"
		/>
</g>
<g>
	<path d="M578.6,575.4l2.1,0l0.8-3l-2.1,0l0.4-1.7l2.1,0l1.1-4.2l2,0l-1.1,4.2l1.7,0l1.1-4.2l2,0l-1.1,4.2l2.1,0l-0.4,1.7l-2.1,0
		l-0.8,3l2.1,0l-0.4,1.7l-2.1,0l-1,4.1l-2,0l1-4.1l-1.7,0l-1.1,4.1l-2,0l1.1-4.1l-2.1,0L578.6,575.4z M584.4,575.3l0.8-3l-1.7,0
		l-0.8,3L584.4,575.3z"/>
	<path d="M599.5,568c0.8,1.3,1.2,3.2,1.2,5.7c0,2.5-0.3,4.4-1.1,5.7c-0.7,1.3-2.1,2-4,2c-1.9,0-3.2-0.6-4-1.9
		c-0.8-1.3-1.2-3.2-1.2-5.7c0-2.5,0.3-4.4,1.1-5.7c0.7-1.3,2.1-2,4-2.1C597.4,566,598.7,566.7,599.5,568z M594,577.7
		c0.3,0.9,0.9,1.3,1.7,1.3s1.4-0.5,1.7-1.4c0.3-0.9,0.4-2.2,0.4-3.9c0-1.8-0.2-3.1-0.5-4c-0.3-0.9-0.9-1.3-1.7-1.3s-1.4,0.4-1.7,1.3
		s-0.4,2.2-0.4,4C593.5,575.5,593.7,576.8,594,577.7z"/>
	<path d="M611.2,567.8c0.8,1.3,1.2,3.2,1.2,5.7c0,2.5-0.3,4.4-1.1,5.7c-0.7,1.3-2.1,2-4,2c-1.9,0-3.2-0.6-4-1.9
		c-0.8-1.3-1.2-3.2-1.2-5.7c0-2.5,0.3-4.4,1.1-5.7c0.7-1.3,2.1-2,4-2.1C609.1,565.8,610.4,566.5,611.2,567.8z M605.6,577.5
		c0.3,0.9,0.9,1.3,1.7,1.3s1.4-0.5,1.7-1.4c0.3-0.9,0.4-2.2,0.4-3.9c0-1.8-0.2-3.1-0.5-4c-0.3-0.9-0.9-1.3-1.7-1.3s-1.4,0.4-1.7,1.3
		c-0.3,0.9-0.4,2.2-0.4,4C605.2,575.3,605.3,576.6,605.6,577.5z"/>
	<path d="M622.9,567.7c0.8,1.3,1.2,3.2,1.2,5.7c0,2.5-0.3,4.3-1.1,5.7c-0.7,1.3-2.1,2-4,2c-1.9,0-3.2-0.6-4-1.9
		c-0.8-1.3-1.2-3.2-1.2-5.7c0-2.5,0.3-4.4,1.1-5.7c0.7-1.3,2.1-2,4-2.1C620.8,565.7,622.1,566.3,622.9,567.7z M617.3,577.3
		c0.3,0.9,0.9,1.3,1.7,1.3s1.4-0.5,1.7-1.4c0.3-0.9,0.4-2.2,0.4-3.9c0-1.8-0.2-3.1-0.5-4c-0.3-0.9-0.9-1.3-1.7-1.3s-1.4,0.4-1.7,1.3
		s-0.4,2.2-0.4,4C616.9,575.1,617,576.4,617.3,577.3z"/>
	<path d="M634.6,567.5c0.8,1.3,1.2,3.2,1.2,5.7c0,2.5-0.3,4.3-1.1,5.7s-2.1,2-4,2c-1.9,0-3.2-0.6-4-1.9c-0.8-1.3-1.2-3.2-1.2-5.7
		c0-2.5,0.3-4.4,1.1-5.7c0.7-1.3,2.1-2,4-2.1C632.4,565.5,633.8,566.2,634.6,567.5z M629,577.2c0.3,0.9,0.9,1.3,1.7,1.3
		c0.9,0,1.4-0.5,1.7-1.4c0.3-0.9,0.4-2.2,0.4-3.9c0-1.8-0.2-3.1-0.5-4c-0.3-0.9-0.9-1.3-1.7-1.3c-0.9,0-1.4,0.5-1.7,1.3
		c-0.3,0.9-0.4,2.2-0.4,4C628.5,575,628.7,576.3,629,577.2z"/>
	<path d="M646.2,567.3c0.8,1.3,1.2,3.2,1.2,5.7c0,2.5-0.3,4.3-1.1,5.7s-2.1,2-4,2c-1.9,0-3.2-0.6-4-1.9c-0.8-1.3-1.2-3.2-1.2-5.7
		c0-2.5,0.3-4.4,1.1-5.7c0.7-1.3,2.1-2,4-2.1C644.1,565.4,645.5,566,646.2,567.3z M640.7,577c0.3,0.9,0.9,1.3,1.7,1.3
		s1.4-0.5,1.7-1.4c0.3-0.9,0.4-2.2,0.4-3.9c0-1.8-0.2-3.1-0.5-4c-0.3-0.9-0.9-1.3-1.7-1.3s-1.4,0.4-1.7,1.3s-0.4,2.2-0.4,4
		C640.2,574.8,640.4,576.1,640.7,577z"/>
	<path d="M657.9,567.2c0.8,1.3,1.2,3.2,1.2,5.7c0,2.5-0.3,4.4-1.1,5.7c-0.7,1.3-2.1,2-4,2c-1.9,0-3.2-0.6-4-1.9
		c-0.8-1.3-1.2-3.2-1.2-5.7c0-2.5,0.3-4.4,1.1-5.7c0.7-1.3,2.1-2,4-2.1C655.8,565.2,657.1,565.9,657.9,567.2z M652.3,576.9
		c0.3,0.9,0.9,1.3,1.7,1.3s1.4-0.5,1.7-1.4c0.3-0.9,0.4-2.2,0.4-3.9c0-1.8-0.2-3.1-0.5-4c-0.3-0.9-0.9-1.3-1.7-1.3s-1.4,0.4-1.7,1.3
		s-0.4,2.2-0.4,4C651.9,574.7,652,576,652.3,576.9z"/>
	<path d="M586,594.9c0,0,0.1,0,0.3,0l0,3c-0.2,0-0.3,0-0.5,0c-0.1,0-0.3,0-0.3,0c-1.2,0-2,0.4-2.4,1.2c-0.2,0.4-0.3,1.1-0.3,2
		l0.1,5.3l-2.9,0l-0.2-11.2l2.8,0l0,1.9c0.4-0.8,0.8-1.3,1.2-1.5c0.5-0.5,1.2-0.7,2.1-0.7C585.9,594.9,586,594.9,586,594.9z"/>
	<path d="M593.5,595c0.7,0.3,1.3,0.8,1.7,1.6l0-1.6l2.9,0l0.1,10.6c0,1.4-0.2,2.5-0.7,3.3c-0.8,1.3-2.4,1.9-4.8,2
		c-1.4,0-2.6-0.2-3.5-0.8c-0.9-0.5-1.4-1.4-1.5-2.5l3.2,0c0.1,0.3,0.2,0.6,0.4,0.7c0.3,0.3,0.8,0.4,1.6,0.4c1.1,0,1.8-0.4,2.1-1.1
		c0.2-0.5,0.3-1.2,0.3-2.3l0-0.7c-0.3,0.5-0.6,0.8-0.9,1.1c-0.6,0.5-1.3,0.7-2.3,0.7c-1.4,0-2.6-0.5-3.5-1.5c-0.9-1-1.3-2.4-1.3-4.1
		c0-1.7,0.4-3.1,1.2-4.2c0.8-1.1,2-1.7,3.5-1.7C592.6,594.8,593.1,594.9,593.5,595z M594.6,603c0.5-0.5,0.7-1.3,0.7-2.5
		c0-1.1-0.2-1.9-0.7-2.4c-0.5-0.5-1.1-0.8-1.8-0.8c-1,0-1.7,0.5-2.1,1.5c-0.2,0.5-0.3,1.1-0.3,1.9c0,0.6,0.1,1.2,0.4,1.7
		c0.4,0.9,1.1,1.4,2.1,1.4C593.6,603.8,594.2,603.6,594.6,603z"/>
	<path d="M610.4,596.2c0.9,1,1.3,2.4,1.3,4.1c0,1.7-0.4,3.2-1.2,4.3c-0.8,1.2-2,1.7-3.4,1.8c-0.9,0-1.7-0.2-2.2-0.5
		c-0.3-0.2-0.7-0.6-1.1-1.1l0,1.4l-2.9,0l-0.2-15.1l2.9,0l0.1,5.4c0.4-0.5,0.8-0.9,1.2-1.2c0.5-0.3,1.2-0.5,2-0.5
		C608.4,594.6,609.5,595.1,610.4,596.2z M608,603c0.4-0.6,0.6-1.4,0.6-2.4c0-0.8-0.1-1.4-0.3-2c-0.4-1-1.1-1.5-2.2-1.4
		c-1.1,0-1.8,0.5-2.2,1.5c-0.2,0.5-0.3,1.2-0.3,2c0,1,0.2,1.7,0.7,2.4c0.4,0.6,1.1,0.9,2,0.9C607,603.9,607.6,603.6,608,603z"/>
	<path d="M614.4,594.6c0.5-1.3,1.3-2.6,2.3-4.1l2.2,0l-0.6,1.2c-0.8,1.6-1.4,3.3-1.7,5c-0.2,1.1-0.3,2.4-0.3,3.7c0,2.1,0.4,4,1,5.8
		c0.4,1,1,2.4,1.9,4l-2.2,0l-0.7-1c-0.5-0.6-1-1.5-1.5-2.7c-1-2.1-1.5-4.2-1.5-6.3C613.2,598.4,613.6,596.5,614.4,594.6z"/>
	<path d="M629,592.8c0.8,1.3,1.2,3.2,1.2,5.7c0,2.5-0.3,4.3-1.1,5.7c-0.7,1.3-2.1,2-4,2c-1.9,0-3.2-0.6-4-1.9
		c-0.8-1.3-1.2-3.2-1.2-5.7c0-2.5,0.3-4.4,1.1-5.7c0.7-1.3,2.1-2,4-2.1C626.9,590.8,628.2,591.5,629,592.8z M623.4,602.5
		c0.3,0.9,0.9,1.3,1.7,1.3c0.9,0,1.4-0.5,1.7-1.4c0.3-0.9,0.4-2.2,0.4-3.9c0-1.8-0.2-3.1-0.5-4c-0.3-0.9-0.9-1.3-1.7-1.3
		c-0.9,0-1.4,0.4-1.7,1.3c-0.3,0.9-0.4,2.2-0.4,4C623,600.3,623.1,601.6,623.4,602.5z"/>
	<path d="M632.3,608.1c0.6-0.2,1-0.5,1.3-0.8c0.3-0.4,0.4-0.9,0.5-1.6l-1.8,0l0-3.1l3.2,0l0,2.7c0,0.5,0,1-0.2,1.5s-0.3,0.9-0.7,1.3
		c-0.4,0.4-0.8,0.7-1.3,0.9c-0.5,0.2-0.8,0.3-1,0.3L632.3,608.1z"/>
	<path d="M652.4,592.5c0.8,1.3,1.2,3.2,1.2,5.7c0,2.5-0.3,4.3-1.1,5.7s-2.1,2-4,2c-1.9,0-3.2-0.6-4-1.9c-0.8-1.3-1.2-3.2-1.2-5.7
		c0-2.5,0.3-4.4,1.1-5.7c0.7-1.3,2.1-2,4-2.1C650.2,590.5,651.6,591.1,652.4,592.5z M646.8,602.1c0.3,0.9,0.9,1.3,1.7,1.3
		c0.9,0,1.4-0.5,1.7-1.4c0.3-0.9,0.4-2.2,0.4-3.9c0-1.8-0.2-3.1-0.5-4c-0.3-0.9-0.9-1.3-1.7-1.3c-0.9,0-1.4,0.4-1.7,1.3
		s-0.4,2.2-0.4,4C646.3,599.9,646.5,601.2,646.8,602.1z"/>
	<path d="M655.7,607.8c0.6-0.2,1-0.5,1.3-0.8c0.3-0.4,0.4-0.9,0.5-1.6l-1.8,0l0-3.1l3.2,0l0,2.7c0,0.5,0,1-0.2,1.5
		c-0.1,0.5-0.3,0.9-0.7,1.3c-0.4,0.4-0.8,0.7-1.3,0.9c-0.5,0.2-0.8,0.3-1,0.3L655.7,607.8z"/>
	<path d="M675.7,592.1c0.8,1.3,1.2,3.2,1.2,5.7c0,2.5-0.3,4.4-1.1,5.7c-0.7,1.3-2.1,2-4,2c-1.9,0-3.2-0.6-4-1.9
		c-0.8-1.3-1.2-3.2-1.2-5.7c0-2.5,0.3-4.4,1.1-5.7c0.7-1.3,2.1-2,4-2.1C673.6,590.2,674.9,590.8,675.7,592.1z M670.1,601.8
		c0.3,0.9,0.9,1.3,1.7,1.3c0.9,0,1.4-0.5,1.7-1.4c0.3-0.9,0.4-2.2,0.4-3.9c0-1.8-0.2-3.1-0.5-4c-0.3-0.9-0.9-1.3-1.7-1.3
		c-0.9,0-1.4,0.4-1.7,1.3s-0.4,2.2-0.4,4C669.7,599.6,669.8,600.9,670.1,601.8z"/>
	<path d="M682.5,593.7c0.8,1.8,1.2,3.7,1.3,5.6c0,2.1-0.4,4.2-1.3,6.3c-0.5,1.2-1,2.1-1.5,2.7l-0.7,1l-2.2,0c0.9-1.6,1.5-3,1.8-4
		c0.6-1.8,0.9-3.7,0.8-5.8c0-1.3-0.1-2.6-0.4-3.7c-0.4-1.7-1-3.4-1.9-4.9l-0.6-1.1l2.2,0C681.1,591.1,681.9,592.5,682.5,593.7z"/>
</g>
</svg>
