<?xml version="1.0" encoding="utf-8"?>
<!-- Generator: Adobe Illustrator 19.2.1, SVG Export Plug-In . SVG Version: 6.00 Build 0)  -->
<svg version="1.1" id="Layer_1" xmlns="http://www.w3.org/2000/svg" xmlns:xlink="http://www.w3.org/1999/xlink" x="0px" y="0px"
	 viewBox="0 0 648 648" style="enable-background:new 0 0 648 648;" xml:space="preserve">
<style type="text/css">
	.st0{opacity:0.19;fill:#161246;}
	.st1{fill:#1DACB7;}
	.st2{fill:#ED1818;}
	.st3{fill:#00C6A0;}
	.st4{opacity:0.9;fill:#161246;}
	.st5{fill:#201B44;}
	.st6{fill:#C9C9D4;}
	.st7{fill:#E01014;}
	.st8{fill:#1C837A;}
	.st9{fill:#2A9CA9;}
	.st10{fill:#27BB8E;}
</style>
<g>
	<path d="M101.7,202.8c-4.4,29.8-6.1,42.5,22.1,42.5l-0.2,1.7H20l0.2-1.7c25.3,0,27.5-13.8,32.2-42.5l13-83.6
		c4.7-29.8,6.9-42.5-18.7-42.5l0.2-1.7h87.8c47.5,0,72.8,11.8,72.8,40.6c0,47.7-53.4,59.8-94.4,59.8h-4.4l0.2-2h3.7
		c34.4,0,43.5-36.9,43.5-66.6c0-20.7-8.4-30-27.8-30h-6.9L101.7,202.8z"/>
	<path d="M300.1,171.4l-1-0.2c-16.5,63-32.7,77.7-58.8,77.7c-33.9,0-33-25.3-30.2-42.3l12-73.5c0.7-4.9-3.2-8.6-10.1-6.4l-0.7-0.7
		c8.6-4.2,25.8-9.6,37.6-9.6c14,0,18.9,5.2,16.2,21.9l-12.8,78.7c-2,11.6,0.2,18.7,7.9,18.7c15,0,27.1-28.3,36.1-64.9
		c4.2-17,11.1-48.7,2.7-52.9l0.7-0.7c33.4-2.5,49.7-2,43.5,37.9l-13.3,84.3c-6.9,43.3-64.4,85.8-93.7,85.8
		c-49.2,0-64.7-43.5-99.8-43.5c-15,0-20.7,7.1-20.7,14c0,6.1,4.2,11.6,13,11.6c5.9,0,13.3-5.9,10.6-13c33.7-3.4,34.4,47.2-2,47.2
		c-18.9,0-29-13.5-29-29.5c0-24.1,22.1-54.1,54.3-54.1c56.8,0,78.9,58.5,93,58.5c18.4,0,24.8-46,27.5-59.3L300.1,171.4z"/>
</g>
<g>
	<circle class="st1" cx="167.6" cy="475.8" r="113.6"/>
	<polygon class="st3" points="159.9,589 223.4,479 287,589 	"/>
</g>
<g>
	<circle class="st0" cx="487.3" cy="183" r="112.3"/>
	<path class="st4" d="M513.4,74.1c-18-4.2-37.2-4.1-56.2,1.3c-59.7,17-94.3,79.1-77.3,138.8c17,59.7,79.1,94.3,138.8,77.3
		c19-5.4,35.5-15.4,48.5-28.5L513.4,74.1z"/>
</g>
<g>
	<polygon class="st2" points="356.2,589.1 485.6,365 615,589.1 	"/>
	<rect x="481.5" y="480.6" class="st3" width="114.1" height="22.4"/>
	<circle class="st3" cx="598.5" cy="492.1" r="23.8"/>
</g>
</svg>
